<?xml version="1.0" encoding="iso-8859-1"?>
<!-- Uploaded to: SVG Repo, www.svgrepo.com, Generator: SVG Repo Mixer Tools -->
<svg fill="#fff" height="800px" width="800px" version="1.1" id="Layer_1" xmlns="http://www.w3.org/2000/svg" xmlns:xlink="http://www.w3.org/1999/xlink" 
	 viewBox="0 0 502.4 502.4" xml:space="preserve">
<g>
	<g>
		<path d="M481.066,428.266H435.2V372.8h11.733c11.733,0,21.333-9.6,22.4-20.267v-76.8c0-1.067,1.067-2.133,1.067-3.2
			c6.4-21.333,14.933-46.933,12.8-73.6c-2.133-22.4-10.667-40.533-18.133-58.667c-5.333-10.667-9.6-22.4-12.8-33.067
			C448,91.2,448,72,448,53.866V52.8c0-11.733-9.6-21.333-21.333-21.333H291.2c-5.333,0-10.667,2.133-14.933,6.4
			s-5.333,10.667-5.333,16C272,70.933,273.067,88,272,104c0,9.6-1.067,21.333-4.267,30.933c-4.267,10.667-11.733,21.333-23.467,32
			c-19.2,16-41.6,27.733-66.133,39.467c-24.533,11.733-49.067,24.533-71.467,42.667c-9.6,7.467-22.4,20.267-29.867,39.467
			c-6.4,18.133-6.4,43.733,8.533,60.8c14.933,17.067,36.267,18.133,48,18.133l17.067,1.067v59.733H93.867
			c-2.133,0-3.2,0-5.333,1.067c-25.6-3.2-45.867-30.933-45.867-64c0-11.733-9.6-21.333-21.333-21.333S0,353.6,0,365.334
			c0,57.6,42.667,105.6,93.867,105.6H480c11.733,0,22.4-9.6,22.4-21.333C502.4,437.866,492.8,428.266,481.066,428.266z
			 M392.533,428.266H193.066V369.6h0l69.333,3.2c3.2,0,23.467,1.067,29.867,0c10.667-2.133,26.667-9.6,40.533-17.067
			c2.133,9.6,10.667,17.067,21.333,17.067h38.4V428.266z M429.866,264c-3.2,5.333-4.267,10.667-3.2,16v51.2h-51.2v-6.4
			c2.133-5.333,1.067-11.733-2.133-17.067l-1.067-1.067c-3.2-6.4-10.667-10.667-18.133-10.667c-6.4,0-11.733,3.2-16,7.467
			c-2.133,2.133-5.333,5.333-8.533,6.4c-17.067,9.6-37.333,19.2-45.867,21.333c-5.333,1.067-11.733,1.067-19.2,1.067L135.466,328
			c-7.467-1.066-16-1.066-18.133-4.267c-3.2-2.133-4.267-10.667-1.067-18.133s8.533-14.933,18.133-22.4
			c18.133-16,40.533-26.667,62.933-37.333c25.6-11.733,52.267-25.6,75.733-45.867c17.067-16,28.8-32,35.2-50.133
			c4.267-14.933,5.333-29.867,6.4-42.667v-32h92.8c1.067,13.867,2.133,28.8,5.333,43.733c4.267,13.867,9.6,26.667,14.933,39.467
			c6.4,14.933,12.8,29.867,13.867,44.8c2.133,19.2-5.333,39.467-10.667,57.6C430.933,261.866,429.866,262.933,429.866,264z"/>
	</g>
</g>
</svg>