<svg width="48" height="48" viewBox="0 0 48 48" fill="none" xmlns="http://www.w3.org/2000/svg">
<path fill-rule="evenodd" clip-rule="evenodd" d="M24.672 28.3463C24.4634 28.4508 24.2333 28.5052 24 28.5052C23.7667 28.5052 23.5366 28.4508 23.328 28.3463L5.32799 19.3463C5.15032 19.2589 4.9917 19.1373 4.86126 18.9884C4.73083 18.8395 4.63115 18.6662 4.56799 18.4786C4.50483 18.291 4.47944 18.0928 4.49326 17.8953C4.50709 17.6978 4.55987 17.505 4.64856 17.328C4.73725 17.151 4.86009 16.9934 5.01001 16.8641C5.15992 16.7348 5.33395 16.6365 5.52205 16.5748C5.71015 16.5131 5.9086 16.4892 6.10596 16.5046C6.30333 16.5199 6.4957 16.5742 6.67199 16.6643L24 25.3253L41.328 16.6643C41.5043 16.5742 41.6967 16.5199 41.894 16.5046C42.0914 16.4892 42.2898 16.5131 42.4779 16.5748C42.666 16.6365 42.8401 16.7348 42.99 16.8641C43.1399 16.9934 43.2627 17.1511 43.3514 17.328C43.4401 17.505 43.4929 17.6978 43.5067 17.8953C43.5205 18.0928 43.4951 18.291 43.432 18.4786C43.3688 18.6662 43.2692 18.8395 43.1387 18.9884C43.0083 19.1373 42.8497 19.2589 42.672 19.3463L24.672 28.3463Z" fill="white"/>
</svg>
