<svg width="654" height="94" viewBox="0 0 654 94" fill="none" xmlns="http://www.w3.org/2000/svg">
<rect width="654" height="94" fill="black"/>
<path d="M59.6602 37.5293C59.6602 35.4102 59.4779 33.6328 59.1133 32.1973C58.7487 30.7389 58.293 29.5426 57.7461 28.6084C57.1992 27.6742 56.6068 26.9564 55.9688 26.4551C55.3307 25.931 54.7383 25.555 54.1914 25.3271C53.6445 25.0765 53.1774 24.9398 52.79 24.917C52.4255 24.8714 52.2432 24.8486 52.2432 24.8486C50.6937 24.8486 49.2923 25.2816 48.0391 26.1475C46.7858 27.0133 45.7148 28.3236 44.8262 30.0781C43.9375 31.8099 43.2425 33.986 42.7412 36.6064C42.2627 39.2269 42.0234 42.3031 42.0234 45.835C42.0234 49.3669 42.2399 52.4772 42.6729 55.166C43.1286 57.832 43.7552 60.0651 44.5527 61.8652C45.373 63.6654 46.3643 65.0212 47.5264 65.9326C48.6885 66.8213 49.9873 67.2656 51.4229 67.2656C51.4684 67.2656 51.6849 67.2428 52.0723 67.1973C52.4596 67.1517 52.9154 67.0036 53.4395 66.7529C53.9863 66.5023 54.5674 66.1035 55.1826 65.5566C55.8206 64.987 56.4131 64.1895 56.96 63.1641C57.5296 62.1387 58.0081 60.8398 58.3955 59.2676C58.8057 57.6725 59.0677 55.7243 59.1816 53.4229C57.4271 53.5596 55.7067 53.7533 54.0205 54.0039C52.3343 54.2546 50.6481 54.5736 48.9619 54.9609V49.4238C52.1064 49.5605 55.2282 49.6289 58.3271 49.6289C59.4209 49.6289 60.5033 49.6289 61.5742 49.6289C62.668 49.6289 63.7617 49.6061 64.8555 49.5605C64.8555 52.2949 64.6618 54.7103 64.2744 56.8066C63.9098 58.8802 63.4199 60.6917 62.8047 62.2412C62.2122 63.7679 61.5173 65.0667 60.7197 66.1377C59.945 67.1859 59.1475 68.0518 58.3271 68.7354C57.5068 69.4189 56.6979 69.943 55.9004 70.3076C55.1257 70.6722 54.4193 70.9342 53.7812 71.0938C53.1432 71.276 52.6191 71.3786 52.209 71.4014C51.8216 71.4469 51.6051 71.4697 51.5596 71.4697C48.9619 71.4697 46.6491 70.9342 44.6211 69.8633C42.5931 68.7695 40.8841 67.1631 39.4941 65.0439C38.1042 62.902 37.0446 60.2588 36.3154 57.1143C35.609 53.9469 35.2559 50.2897 35.2559 46.1426C35.2559 41.6536 35.609 37.7686 36.3154 34.4873C37.0218 31.2061 38.0928 28.4945 39.5283 26.3525C40.9639 24.1878 42.7754 22.5814 44.9629 21.5332C47.1732 20.485 49.7708 19.9609 52.7559 19.9609C52.8242 19.9609 53.1888 19.9951 53.8496 20.0635C54.5104 20.109 55.3079 20.2913 56.2422 20.6104C57.1764 20.9294 58.1676 21.4421 59.2158 22.1484C60.2868 22.832 61.2666 23.8118 62.1553 25.0879C63.0667 26.3639 63.8187 27.9932 64.4111 29.9756C65.0264 31.958 65.334 34.3848 65.334 37.2559L59.6602 37.5293ZM97.4971 50.8252C97.4515 53.1266 97.3831 55.4167 97.292 57.6953C97.2464 58.6751 97.2008 59.7005 97.1553 60.7715C97.1097 61.8424 97.0527 62.9248 96.9844 64.0186C96.9388 65.0895 96.8704 66.1491 96.7793 67.1973C96.7109 68.2454 96.6426 69.2253 96.5742 70.1367L91.8916 70C91.9372 69.3392 91.9714 68.6898 91.9941 68.0518C92.0169 67.4137 92.0283 66.7757 92.0283 66.1377C91.0029 67.2314 89.9206 68.0859 88.7812 68.7012C87.6419 69.3164 86.5596 69.7835 85.5342 70.1025C84.3493 70.4899 83.1758 70.7406 82.0137 70.8545C81.763 70.9001 81.5238 70.9229 81.2959 70.9229C81.0908 70.9229 80.863 70.9229 80.6123 70.9229C79.0173 70.9229 77.4906 70.695 76.0322 70.2393C74.5739 69.8063 73.2751 69.1341 72.1357 68.2227C71.0192 67.3112 70.1191 66.1719 69.4355 64.8047C68.7747 63.4147 68.4443 61.7855 68.4443 59.917C68.4443 58.2764 68.7633 56.7383 69.4014 55.3027C70.0622 53.8444 70.9736 52.5798 72.1357 51.5088C73.3206 50.415 74.7448 49.5492 76.4082 48.9111C78.0716 48.2731 79.9173 47.9313 81.9453 47.8857C82.0137 47.8857 82.401 47.9085 83.1074 47.9541C83.8138 47.9997 84.6683 48.1478 85.6709 48.3984C86.6963 48.6263 87.79 49.0023 88.9521 49.5264C90.137 50.0277 91.2308 50.734 92.2334 51.6455C92.2334 50.6201 92.2106 49.5378 92.165 48.3984C92.1195 47.2591 92.0055 46.1426 91.8232 45.0488C91.6637 43.9323 91.4017 42.8727 91.0371 41.8701C90.6725 40.8675 90.1712 39.9902 89.5332 39.2383C88.918 38.4635 88.1318 37.8597 87.1748 37.4268C86.2178 36.971 85.0557 36.7432 83.6885 36.7432C82.6175 36.7432 81.6377 36.9482 80.749 37.3584C79.8604 37.7686 79.0742 38.3268 78.3906 39.0332C77.707 39.7396 77.1374 40.5827 76.6816 41.5625C76.2259 42.5195 75.8841 43.5563 75.6562 44.6729L69.9141 42.8271C70.1875 41.5283 70.5749 40.3776 71.0762 39.375C71.6003 38.3724 72.1813 37.4951 72.8193 36.7432C73.4801 35.9912 74.1751 35.3532 74.9043 34.8291C75.6562 34.2822 76.3968 33.8265 77.126 33.4619C78.835 32.6188 80.6807 32.1061 82.6631 31.9238C85.3975 31.9238 87.7103 32.334 89.6016 33.1543C91.4928 33.9746 93.0195 35.1823 94.1816 36.7773C95.3665 38.3724 96.2096 40.3434 96.7109 42.6904C97.235 45.0374 97.4971 47.749 97.4971 50.8252ZM92.165 60.3271C92.165 59.8714 92.1764 59.4271 92.1992 58.9941C92.222 58.5384 92.2334 58.1055 92.2334 57.6953C91.0257 56.4648 89.8294 55.5306 88.6445 54.8926C87.4824 54.2546 86.4229 53.776 85.4658 53.457C84.3721 53.0924 83.3125 52.8874 82.2871 52.8418C80.8743 52.8418 79.6553 53.0469 78.6299 53.457C77.6273 53.8444 76.7956 54.3685 76.1348 55.0293C75.4967 55.6901 75.0182 56.4421 74.6992 57.2852C74.403 58.1283 74.2549 59.0055 74.2549 59.917C74.2549 60.8512 74.4258 61.6943 74.7676 62.4463C75.1094 63.1982 75.5879 63.8363 76.2031 64.3604C76.8411 64.8844 77.6045 65.2946 78.4932 65.5908C79.4046 65.8643 80.4186 66.001 81.5352 66.001C82.6289 65.9098 83.7682 65.6592 84.9531 65.249C85.9785 64.8844 87.1064 64.3262 88.3369 63.5742C89.5902 62.7995 90.8662 61.7171 92.165 60.3271ZM109.836 21.7725L109.152 69.7949H105.085L104.401 21.3623L109.836 21.7725ZM121.696 49.9023C121.651 50.153 121.639 50.4036 121.662 50.6543C121.685 50.8822 121.696 51.1214 121.696 51.3721C121.696 53.6507 121.924 55.5762 122.38 57.1484C122.836 58.6979 123.405 59.9854 124.089 61.0107C124.795 62.0361 125.559 62.8223 126.379 63.3691C127.222 63.916 128.008 64.3262 128.737 64.5996C129.466 64.8503 130.093 64.9984 130.617 65.0439C131.141 65.0895 131.46 65.1123 131.574 65.1123C131.551 65.1123 131.711 65.1009 132.053 65.0781C132.395 65.0326 132.839 64.9414 133.386 64.8047C133.955 64.6452 134.593 64.4059 135.3 64.0869C136.006 63.7679 136.701 63.3236 137.385 62.7539C138.091 62.1615 138.752 61.4323 139.367 60.5664C139.982 59.6777 140.484 58.5954 140.871 57.3193L145.075 58.5156C144.733 59.9284 144.278 61.1816 143.708 62.2754C143.138 63.3691 142.5 64.3262 141.794 65.1465C141.11 65.9668 140.37 66.6732 139.572 67.2656C138.798 67.8353 138.034 68.3024 137.282 68.667C135.505 69.5785 133.602 70.1139 131.574 70.2734C129.569 70.2734 127.792 69.9772 126.242 69.3848C124.715 68.7695 123.394 67.9492 122.277 66.9238C121.161 65.8984 120.227 64.7249 119.475 63.4033C118.723 62.0817 118.119 60.7031 117.663 59.2676C117.23 57.8092 116.911 56.3623 116.706 54.9268C116.524 53.4684 116.433 52.1012 116.433 50.8252C116.433 49.6403 116.501 48.3415 116.638 46.9287C116.774 45.516 117.036 44.0918 117.424 42.6562C117.811 41.2207 118.358 39.8307 119.064 38.4863C119.771 37.1419 120.694 35.9456 121.833 34.8975C122.972 33.8493 124.351 33.0176 125.969 32.4023C127.609 31.7643 129.546 31.4453 131.779 31.4453C132.167 31.4453 132.793 31.4909 133.659 31.582C134.548 31.6504 135.539 31.8783 136.633 32.2656C137.727 32.6302 138.854 33.1999 140.017 33.9746C141.179 34.7266 142.238 35.7861 143.195 37.1533C144.175 38.5205 144.973 40.2409 145.588 42.3145C146.226 44.388 146.545 46.9173 146.545 49.9023H121.696ZM131.574 36.6748C130.002 36.7887 128.555 37.1647 127.233 37.8027C126.664 38.0762 126.094 38.4294 125.524 38.8623C124.978 39.2725 124.465 39.7852 123.986 40.4004C123.508 40.9928 123.086 41.6992 122.722 42.5195C122.357 43.3398 122.106 44.2855 121.97 45.3564H140.734C140.598 44.012 140.233 42.8044 139.641 41.7334C139.048 40.6624 138.319 39.751 137.453 38.999C136.61 38.2471 135.664 37.6774 134.616 37.29C133.591 36.8799 132.577 36.6748 131.574 36.6748ZM168.762 33.1885C170.083 33.1885 171.188 33.4619 172.077 34.0088C172.989 34.5557 173.718 35.2848 174.265 36.1963C174.834 37.1077 175.233 38.1673 175.461 39.375C175.712 40.5599 175.837 41.7904 175.837 43.0664C175.837 44.3197 175.769 45.835 175.632 47.6123C175.495 49.3669 175.199 51.1556 174.743 52.9785L170.539 52.3633C170.812 50.7454 170.995 49.2643 171.086 47.9199C171.177 46.5527 171.223 45.3678 171.223 44.3652C171.223 41.9271 170.961 40.2181 170.437 39.2383C169.935 38.2357 169.149 37.7344 168.078 37.7344C167.144 37.7344 166.13 38.1673 165.036 39.0332C163.942 39.8991 162.871 41.2093 161.823 42.9639C160.775 44.7184 159.818 46.9287 158.952 49.5947C158.086 52.2607 157.414 55.3939 156.936 58.9941V71.0596L151.774 70.7861C151.752 64.1553 151.683 58.4928 151.569 53.7988C151.478 49.082 151.387 45.2311 151.296 42.2461C151.159 38.737 151.011 35.8545 150.852 33.5986L156.936 33.1885V44.3652C157.391 43.1348 157.972 41.8701 158.679 40.5713C159.408 39.2497 160.262 38.042 161.242 36.9482C162.245 35.8545 163.361 34.9544 164.592 34.248C165.845 33.5417 167.235 33.1885 168.762 33.1885ZM186.501 35V69.1455H180.759V34.5898L186.501 35ZM185.339 32.5391L183.391 30.0098L192.209 20.2686L195.866 24.7461L185.339 32.5391ZM221.228 50.8252C221.182 53.1266 221.114 55.4167 221.022 57.6953C220.977 58.6751 220.931 59.7005 220.886 60.7715C220.84 61.8424 220.783 62.9248 220.715 64.0186C220.669 65.0895 220.601 66.1491 220.51 67.1973C220.441 68.2454 220.373 69.2253 220.305 70.1367L215.622 70C215.668 69.3392 215.702 68.6898 215.725 68.0518C215.747 67.4137 215.759 66.7757 215.759 66.1377C214.733 67.2314 213.651 68.0859 212.512 68.7012C211.372 69.3164 210.29 69.7835 209.265 70.1025C208.08 70.4899 206.906 70.7406 205.744 70.8545C205.493 70.9001 205.254 70.9229 205.026 70.9229C204.821 70.9229 204.593 70.9229 204.343 70.9229C202.748 70.9229 201.221 70.695 199.763 70.2393C198.304 69.8063 197.006 69.1341 195.866 68.2227C194.75 67.3112 193.85 66.1719 193.166 64.8047C192.505 63.4147 192.175 61.7855 192.175 59.917C192.175 58.2764 192.494 56.7383 193.132 55.3027C193.793 53.8444 194.704 52.5798 195.866 51.5088C197.051 50.415 198.475 49.5492 200.139 48.9111C201.802 48.2731 203.648 47.9313 205.676 47.8857C205.744 47.8857 206.132 47.9085 206.838 47.9541C207.544 47.9997 208.399 48.1478 209.401 48.3984C210.427 48.6263 211.521 49.0023 212.683 49.5264C213.868 50.0277 214.961 50.734 215.964 51.6455C215.964 50.6201 215.941 49.5378 215.896 48.3984C215.85 47.2591 215.736 46.1426 215.554 45.0488C215.394 43.9323 215.132 42.8727 214.768 41.8701C214.403 40.8675 213.902 39.9902 213.264 39.2383C212.648 38.4635 211.862 37.8597 210.905 37.4268C209.948 36.971 208.786 36.7432 207.419 36.7432C206.348 36.7432 205.368 36.9482 204.479 37.3584C203.591 37.7686 202.805 38.3268 202.121 39.0332C201.438 39.7396 200.868 40.5827 200.412 41.5625C199.956 42.5195 199.615 43.5563 199.387 44.6729L193.645 42.8271C193.918 41.5283 194.305 40.3776 194.807 39.375C195.331 38.3724 195.912 37.4951 196.55 36.7432C197.211 35.9912 197.906 35.3532 198.635 34.8291C199.387 34.2822 200.127 33.8265 200.856 33.4619C202.565 32.6188 204.411 32.1061 206.394 31.9238C209.128 31.9238 211.441 32.334 213.332 33.1543C215.223 33.9746 216.75 35.1823 217.912 36.7773C219.097 38.3724 219.94 40.3434 220.441 42.6904C220.965 45.0374 221.228 47.749 221.228 50.8252ZM215.896 60.3271C215.896 59.8714 215.907 59.4271 215.93 58.9941C215.952 58.5384 215.964 58.1055 215.964 57.6953C214.756 56.4648 213.56 55.5306 212.375 54.8926C211.213 54.2546 210.153 53.776 209.196 53.457C208.103 53.0924 207.043 52.8874 206.018 52.8418C204.605 52.8418 203.386 53.0469 202.36 53.457C201.358 53.8444 200.526 54.3685 199.865 55.0293C199.227 55.6901 198.749 56.4421 198.43 57.2852C198.133 58.1283 197.985 59.0055 197.985 59.917C197.985 60.8512 198.156 61.6943 198.498 62.4463C198.84 63.1982 199.318 63.8363 199.934 64.3604C200.572 64.8844 201.335 65.2946 202.224 65.5908C203.135 65.8643 204.149 66.001 205.266 66.001C206.359 65.9098 207.499 65.6592 208.684 65.249C209.709 64.8844 210.837 64.3262 212.067 63.5742C213.321 62.7995 214.597 61.7171 215.896 60.3271ZM272.326 20.6445V69.3848H267.644V64.0527C267.188 64.873 266.687 65.5908 266.14 66.2061C265.616 66.8213 265.069 67.3568 264.499 67.8125C263.929 68.2682 263.348 68.6556 262.756 68.9746C262.186 69.2708 261.628 69.5215 261.081 69.7266C259.828 70.2051 258.529 70.4785 257.185 70.5469C255.065 70.5469 253.094 70.0798 251.271 69.1455C249.449 68.2113 247.865 66.8783 246.521 65.1465C245.199 63.4147 244.162 61.3184 243.41 58.8574C242.658 56.3737 242.282 53.6051 242.282 50.5518C242.282 47.9541 242.567 45.5046 243.137 43.2031C243.729 40.9017 244.572 38.8851 245.666 37.1533C246.783 35.4215 248.127 34.0544 249.699 33.0518C251.294 32.0264 253.094 31.5137 255.1 31.5137C256.786 31.582 258.404 31.8896 259.953 32.4365C260.614 32.6644 261.286 32.9606 261.97 33.3252C262.676 33.6898 263.36 34.1455 264.021 34.6924C264.681 35.2165 265.297 35.8317 265.866 36.5381C266.459 37.2445 266.971 38.0648 267.404 38.999V20.8496L272.326 20.6445ZM267.131 51.3721C267.062 49.4808 266.835 47.806 266.447 46.3477C266.083 44.8665 265.616 43.5791 265.046 42.4854C264.476 41.3916 263.827 40.4801 263.098 39.751C262.368 38.999 261.628 38.3952 260.876 37.9395C260.124 37.4837 259.372 37.1647 258.62 36.9824C257.868 36.7773 257.185 36.6748 256.569 36.6748C254.951 36.6748 253.562 37.0394 252.399 37.7686C251.237 38.4977 250.28 39.5231 249.528 40.8447C248.776 42.1663 248.218 43.75 247.854 45.5957C247.512 47.4414 247.341 49.4808 247.341 51.7139C247.341 54.3571 247.683 56.6016 248.366 58.4473C249.073 60.2702 249.938 61.7513 250.964 62.8906C252.012 64.0072 253.14 64.8161 254.348 65.3174C255.578 65.8187 256.717 66.0693 257.766 66.0693C258.905 66.0693 260.033 65.7959 261.149 65.249C262.266 64.6794 263.269 63.8021 264.157 62.6172C265.046 61.4095 265.764 59.8828 266.311 58.0371C266.857 56.1914 267.131 53.9697 267.131 51.3721ZM283.161 49.9023C283.116 50.153 283.104 50.4036 283.127 50.6543C283.15 50.8822 283.161 51.1214 283.161 51.3721C283.161 53.6507 283.389 55.5762 283.845 57.1484C284.3 58.6979 284.87 59.9854 285.554 61.0107C286.26 62.0361 287.023 62.8223 287.844 63.3691C288.687 63.916 289.473 64.3262 290.202 64.5996C290.931 64.8503 291.558 64.9984 292.082 65.0439C292.606 65.0895 292.925 65.1123 293.039 65.1123C293.016 65.1123 293.176 65.1009 293.518 65.0781C293.859 65.0326 294.304 64.9414 294.851 64.8047C295.42 64.6452 296.058 64.4059 296.765 64.0869C297.471 63.7679 298.166 63.3236 298.85 62.7539C299.556 62.1615 300.217 61.4323 300.832 60.5664C301.447 59.6777 301.949 58.5954 302.336 57.3193L306.54 58.5156C306.198 59.9284 305.743 61.1816 305.173 62.2754C304.603 63.3691 303.965 64.3262 303.259 65.1465C302.575 65.9668 301.835 66.6732 301.037 67.2656C300.262 67.8353 299.499 68.3024 298.747 68.667C296.97 69.5785 295.067 70.1139 293.039 70.2734C291.034 70.2734 289.257 69.9772 287.707 69.3848C286.18 68.7695 284.859 67.9492 283.742 66.9238C282.626 65.8984 281.691 64.7249 280.939 63.4033C280.188 62.0817 279.584 60.7031 279.128 59.2676C278.695 57.8092 278.376 56.3623 278.171 54.9268C277.989 53.4684 277.897 52.1012 277.897 50.8252C277.897 49.6403 277.966 48.3415 278.103 46.9287C278.239 45.516 278.501 44.0918 278.889 42.6562C279.276 41.2207 279.823 39.8307 280.529 38.4863C281.236 37.1419 282.159 35.9456 283.298 34.8975C284.437 33.8493 285.816 33.0176 287.434 32.4023C289.074 31.7643 291.011 31.4453 293.244 31.4453C293.632 31.4453 294.258 31.4909 295.124 31.582C296.013 31.6504 297.004 31.8783 298.098 32.2656C299.191 32.6302 300.319 33.1999 301.481 33.9746C302.644 34.7266 303.703 35.7861 304.66 37.1533C305.64 38.5205 306.438 40.2409 307.053 42.3145C307.691 44.388 308.01 46.9173 308.01 49.9023H283.161ZM293.039 36.6748C291.467 36.7887 290.02 37.1647 288.698 37.8027C288.129 38.0762 287.559 38.4294 286.989 38.8623C286.442 39.2725 285.93 39.7852 285.451 40.4004C284.973 40.9928 284.551 41.6992 284.187 42.5195C283.822 43.3398 283.571 44.2855 283.435 45.3564H302.199C302.062 44.012 301.698 42.8044 301.105 41.7334C300.513 40.6624 299.784 39.751 298.918 38.999C298.075 38.2471 297.129 37.6774 296.081 37.29C295.056 36.8799 294.042 36.6748 293.039 36.6748ZM334.533 21.7725L333.85 69.7949H329.782L329.099 21.3623L334.533 21.7725ZM370.319 49.6289C370.319 52.9102 369.932 55.8496 369.157 58.4473C368.405 61.0449 367.368 63.2552 366.047 65.0781C364.748 66.8783 363.21 68.2682 361.433 69.248C359.655 70.2051 357.764 70.6836 355.759 70.6836C353.731 70.6836 351.828 70.1823 350.051 69.1797C348.273 68.1771 346.724 66.7529 345.402 64.9072C344.081 63.0615 343.033 60.8512 342.258 58.2764C341.506 55.6787 341.13 52.7962 341.13 49.6289C341.13 46.9173 341.46 44.445 342.121 42.2119C342.805 39.9561 343.773 38.0192 345.026 36.4014C346.302 34.7835 347.84 33.5303 349.641 32.6416C351.464 31.7301 353.503 31.2744 355.759 31.2744C358.265 31.2744 360.43 31.7301 362.253 32.6416C364.076 33.5303 365.58 34.7835 366.765 36.4014C367.972 38.0192 368.861 39.9561 369.431 42.2119C370.023 44.445 370.319 46.9173 370.319 49.6289ZM365.021 49.6973C365.021 47.6465 364.839 45.778 364.475 44.0918C364.11 42.4056 363.54 40.9587 362.766 39.751C362.014 38.5205 361.057 37.5749 359.895 36.9141C358.732 36.2533 357.354 35.9229 355.759 35.9229C354.323 35.9229 353.024 36.2533 351.862 36.9141C350.723 37.5749 349.755 38.5205 348.957 39.751C348.16 40.9587 347.544 42.4056 347.111 44.0918C346.678 45.778 346.462 47.6465 346.462 49.6973C346.462 52.0898 346.701 54.2546 347.18 56.1914C347.681 58.1283 348.342 59.7917 349.162 61.1816C350.005 62.5716 350.985 63.6426 352.102 64.3945C353.241 65.1465 354.46 65.5225 355.759 65.5225C357.035 65.5225 358.231 65.1579 359.348 64.4287C360.487 63.6995 361.467 62.6514 362.287 61.2842C363.13 59.917 363.791 58.265 364.27 56.3281C364.771 54.3685 365.021 52.1582 365.021 49.6973ZM394.45 45.2881C394.496 45.083 394.519 44.8779 394.519 44.6729C394.519 44.445 394.519 44.2057 394.519 43.9551C394.519 42.793 394.348 41.7106 394.006 40.708C393.687 39.6826 393.22 38.7939 392.604 38.042C392.012 37.2673 391.283 36.6634 390.417 36.2305C389.551 35.7747 388.594 35.5469 387.546 35.5469C386.338 35.5469 385.244 35.7064 384.265 36.0254C383.285 36.3216 382.442 36.766 381.735 37.3584C381.052 37.9508 380.516 38.6914 380.129 39.5801C379.742 40.446 379.548 41.46 379.548 42.6221C379.548 43.2829 379.707 43.9665 380.026 44.6729C380.368 45.3564 380.869 46.0059 381.53 46.6211C382.191 47.2363 383 47.7832 383.957 48.2617C384.937 48.7402 386.076 49.082 387.375 49.2871C389.813 49.6973 391.796 50.3011 393.322 51.0986C394.872 51.8734 396.079 52.7507 396.945 53.7305C397.834 54.7103 398.438 55.7243 398.757 56.7725C399.076 57.8206 399.235 58.8005 399.235 59.7119C399.235 60.2816 399.167 60.931 399.03 61.6602C398.916 62.3893 398.688 63.1413 398.347 63.916C398.005 64.6908 397.526 65.4541 396.911 66.2061C396.319 66.9352 395.544 67.596 394.587 68.1885C393.63 68.7581 392.479 69.2253 391.135 69.5898C389.813 69.9544 388.241 70.1367 386.418 70.1367C386.236 70.1367 385.826 70.1139 385.188 70.0684C384.572 70.0228 383.832 69.8747 382.966 69.624C382.123 69.3734 381.211 68.9974 380.231 68.4961C379.274 67.9948 378.363 67.2884 377.497 66.377C376.631 65.4655 375.868 64.3148 375.207 62.9248C374.569 61.5348 374.147 59.8372 373.942 57.832L379.548 57.5244C379.707 58.846 379.992 59.9512 380.402 60.8398C380.835 61.7285 381.325 62.4691 381.872 63.0615C382.442 63.6312 383.023 64.0755 383.615 64.3945C384.23 64.7135 384.8 64.9528 385.324 65.1123C385.871 65.249 386.327 65.3288 386.691 65.3516C387.079 65.3743 387.307 65.3857 387.375 65.3857C388.332 65.363 389.198 65.2035 389.973 64.9072C390.77 64.5882 391.442 64.1895 391.989 63.7109C392.536 63.2324 392.958 62.6855 393.254 62.0703C393.55 61.4323 393.698 60.7829 393.698 60.1221C393.698 59.5524 393.596 58.9941 393.391 58.4473C393.186 57.9004 392.798 57.3877 392.229 56.9092C391.682 56.4079 390.918 55.9521 389.938 55.542C388.981 55.1318 387.74 54.7673 386.213 54.4482C383.752 53.9697 381.724 53.2633 380.129 52.3291C378.557 51.3721 377.303 50.3353 376.369 49.2188C375.435 48.0794 374.785 46.9287 374.421 45.7666C374.056 44.6045 373.874 43.5563 373.874 42.6221C373.874 41.2321 374.113 39.8193 374.592 38.3838C375.07 36.9255 375.845 35.6038 376.916 34.4189C378.01 33.2113 379.434 32.2314 381.188 31.4795C382.943 30.7048 385.108 30.3174 387.683 30.3174C390.121 30.4769 392.297 31.0352 394.211 31.9922C395.031 32.4023 395.829 32.9264 396.604 33.5645C397.401 34.1797 398.107 34.943 398.723 35.8545C399.338 36.766 399.828 37.8369 400.192 39.0674C400.58 40.2751 400.773 41.6764 400.773 43.2715C400.773 43.6133 400.751 43.9779 400.705 44.3652C400.682 44.7298 400.648 45.1058 400.603 45.4932L394.45 45.2881ZM441.174 70.4785L439.499 61.3184C438.405 61.2728 437.323 61.2386 436.252 61.2158C435.181 61.193 434.099 61.1816 433.005 61.1816C431.843 61.1816 430.669 61.193 429.484 61.2158C428.299 61.2386 427.115 61.2728 425.93 61.3184C425.633 62.8678 425.349 64.3945 425.075 65.8984C424.825 67.4023 424.574 68.9062 424.323 70.4102L417.932 70.4785C418.934 66.4453 419.868 62.3779 420.734 58.2764C421.623 54.1748 422.478 50.0618 423.298 45.9375C424.118 41.8132 424.927 37.6888 425.725 33.5645C426.522 29.4401 427.331 25.3499 428.151 21.2939L436.97 21.123C438.61 29.349 440.331 37.609 442.131 45.9033C443.954 54.1976 445.925 62.3893 448.044 70.4785H441.174ZM432.8 27.3779C431.706 32.1859 430.669 37.0166 429.689 41.8701C428.71 46.7008 427.753 51.5544 426.818 56.4307C427.821 56.4762 428.812 56.4876 429.792 56.4648C430.772 56.4421 431.774 56.4307 432.8 56.4307C433.78 56.4307 434.737 56.4421 435.671 56.4648C436.605 56.4876 437.551 56.4762 438.508 56.4307C437.596 51.5316 436.674 46.6667 435.739 41.8359C434.805 37.0052 433.825 32.1859 432.8 27.3779ZM469.201 33.1885C470.523 33.1885 471.628 33.4619 472.517 34.0088C473.428 34.5557 474.157 35.2848 474.704 36.1963C475.274 37.1077 475.673 38.1673 475.9 39.375C476.151 40.5599 476.276 41.7904 476.276 43.0664C476.276 44.3197 476.208 45.835 476.071 47.6123C475.935 49.3669 475.638 51.1556 475.183 52.9785L470.979 52.3633C471.252 50.7454 471.434 49.2643 471.525 47.9199C471.617 46.5527 471.662 45.3678 471.662 44.3652C471.662 41.9271 471.4 40.2181 470.876 39.2383C470.375 38.2357 469.589 37.7344 468.518 37.7344C467.583 37.7344 466.569 38.1673 465.476 39.0332C464.382 39.8991 463.311 41.2093 462.263 42.9639C461.215 44.7184 460.257 46.9287 459.392 49.5947C458.526 52.2607 457.854 55.3939 457.375 58.9941V71.0596L452.214 70.7861C452.191 64.1553 452.123 58.4928 452.009 53.7988C451.918 49.082 451.826 45.2311 451.735 42.2461C451.599 38.737 451.451 35.8545 451.291 33.5986L457.375 33.1885V44.3652C457.831 43.1348 458.412 41.8701 459.118 40.5713C459.847 39.2497 460.702 38.042 461.682 36.9482C462.684 35.8545 463.801 34.9544 465.031 34.248C466.285 33.5417 467.674 33.1885 469.201 33.1885ZM489.641 20.6445L489.504 31.9922H496.306V36.333H489.436L488.957 69.8633H484.753L484.479 36.333H476.789V31.9922H484.479L484.411 20.3027L489.641 20.6445ZM506.97 23.8574C506.97 24.4271 506.856 24.9626 506.628 25.4639C506.423 25.9424 506.138 26.3639 505.773 26.7285C505.409 27.0703 504.976 27.3438 504.475 27.5488C503.996 27.7539 503.483 27.8564 502.937 27.8564C502.39 27.8564 501.866 27.7539 501.364 27.5488C500.886 27.3438 500.464 27.0703 500.1 26.7285C499.758 26.3639 499.473 25.9424 499.245 25.4639C499.04 24.9626 498.938 24.4271 498.938 23.8574C498.938 23.3105 499.04 22.7979 499.245 22.3193C499.473 21.818 499.758 21.3965 500.1 21.0547C500.464 20.6901 500.886 20.4053 501.364 20.2002C501.866 19.9951 502.39 19.8926 502.937 19.8926C503.483 19.8926 503.996 19.9951 504.475 20.2002C504.976 20.4053 505.409 20.6901 505.773 21.0547C506.138 21.3965 506.423 21.818 506.628 22.3193C506.856 22.7979 506.97 23.3105 506.97 23.8574ZM505.671 35L505.09 69.1455H500.407L499.929 34.5898L505.671 35ZM532.399 45.2881C532.445 45.083 532.468 44.8779 532.468 44.6729C532.468 44.445 532.468 44.2057 532.468 43.9551C532.468 42.793 532.297 41.7106 531.955 40.708C531.636 39.6826 531.169 38.7939 530.554 38.042C529.961 37.2673 529.232 36.6634 528.366 36.2305C527.5 35.7747 526.543 35.5469 525.495 35.5469C524.287 35.5469 523.194 35.7064 522.214 36.0254C521.234 36.3216 520.391 36.766 519.685 37.3584C519.001 37.9508 518.465 38.6914 518.078 39.5801C517.691 40.446 517.497 41.46 517.497 42.6221C517.497 43.2829 517.657 43.9665 517.976 44.6729C518.317 45.3564 518.819 46.0059 519.479 46.6211C520.14 47.2363 520.949 47.7832 521.906 48.2617C522.886 48.7402 524.025 49.082 525.324 49.2871C527.762 49.6973 529.745 50.3011 531.271 51.0986C532.821 51.8734 534.029 52.7507 534.895 53.7305C535.783 54.7103 536.387 55.7243 536.706 56.7725C537.025 57.8206 537.185 58.8005 537.185 59.7119C537.185 60.2816 537.116 60.931 536.979 61.6602C536.866 62.3893 536.638 63.1413 536.296 63.916C535.954 64.6908 535.476 65.4541 534.86 66.2061C534.268 66.9352 533.493 67.596 532.536 68.1885C531.579 68.7581 530.428 69.2253 529.084 69.5898C527.762 69.9544 526.19 70.1367 524.367 70.1367C524.185 70.1367 523.775 70.1139 523.137 70.0684C522.521 70.0228 521.781 69.8747 520.915 69.624C520.072 69.3734 519.16 68.9974 518.181 68.4961C517.224 67.9948 516.312 67.2884 515.446 66.377C514.58 65.4655 513.817 64.3148 513.156 62.9248C512.518 61.5348 512.097 59.8372 511.892 57.832L517.497 57.5244C517.657 58.846 517.941 59.9512 518.352 60.8398C518.785 61.7285 519.274 62.4691 519.821 63.0615C520.391 63.6312 520.972 64.0755 521.564 64.3945C522.18 64.7135 522.749 64.9528 523.273 65.1123C523.82 65.249 524.276 65.3288 524.641 65.3516C525.028 65.3743 525.256 65.3857 525.324 65.3857C526.281 65.363 527.147 65.2035 527.922 64.9072C528.719 64.5882 529.392 64.1895 529.938 63.7109C530.485 63.2324 530.907 62.6855 531.203 62.0703C531.499 61.4323 531.647 60.7829 531.647 60.1221C531.647 59.5524 531.545 58.9941 531.34 58.4473C531.135 57.9004 530.747 57.3877 530.178 56.9092C529.631 56.4079 528.868 55.9521 527.888 55.542C526.931 55.1318 525.689 54.7673 524.162 54.4482C521.701 53.9697 519.673 53.2633 518.078 52.3291C516.506 51.3721 515.253 50.3353 514.318 49.2188C513.384 48.0794 512.735 46.9287 512.37 45.7666C512.006 44.6045 511.823 43.5563 511.823 42.6221C511.823 41.2321 512.062 39.8193 512.541 38.3838C513.02 36.9255 513.794 35.6038 514.865 34.4189C515.959 33.2113 517.383 32.2314 519.138 31.4795C520.892 30.7048 523.057 30.3174 525.632 30.3174C528.07 30.4769 530.246 31.0352 532.16 31.9922C532.98 32.4023 533.778 32.9264 534.553 33.5645C535.35 34.1797 536.057 34.943 536.672 35.8545C537.287 36.766 537.777 37.8369 538.142 39.0674C538.529 40.2751 538.723 41.6764 538.723 43.2715C538.723 43.6133 538.7 43.9779 538.654 44.3652C538.632 44.7298 538.597 45.1058 538.552 45.4932L532.399 45.2881ZM552.189 20.6445L552.053 31.9922H558.854V36.333H551.984L551.506 69.8633H547.302L547.028 36.333H539.338V31.9922H547.028L546.96 20.3027L552.189 20.6445ZM588.796 50.8252C588.75 53.1266 588.682 55.4167 588.591 57.6953C588.545 58.6751 588.5 59.7005 588.454 60.7715C588.409 61.8424 588.352 62.9248 588.283 64.0186C588.238 65.0895 588.169 66.1491 588.078 67.1973C588.01 68.2454 587.941 69.2253 587.873 70.1367L583.19 70C583.236 69.3392 583.27 68.6898 583.293 68.0518C583.316 67.4137 583.327 66.7757 583.327 66.1377C582.302 67.2314 581.219 68.0859 580.08 68.7012C578.941 69.3164 577.858 69.7835 576.833 70.1025C575.648 70.4899 574.475 70.7406 573.312 70.8545C573.062 70.9001 572.823 70.9229 572.595 70.9229C572.39 70.9229 572.162 70.9229 571.911 70.9229C570.316 70.9229 568.789 70.695 567.331 70.2393C565.873 69.8063 564.574 69.1341 563.435 68.2227C562.318 67.3112 561.418 66.1719 560.734 64.8047C560.074 63.4147 559.743 61.7855 559.743 59.917C559.743 58.2764 560.062 56.7383 560.7 55.3027C561.361 53.8444 562.272 52.5798 563.435 51.5088C564.619 50.415 566.044 49.5492 567.707 48.9111C569.37 48.2731 571.216 47.9313 573.244 47.8857C573.312 47.8857 573.7 47.9085 574.406 47.9541C575.113 47.9997 575.967 48.1478 576.97 48.3984C577.995 48.6263 579.089 49.0023 580.251 49.5264C581.436 50.0277 582.53 50.734 583.532 51.6455C583.532 50.6201 583.509 49.5378 583.464 48.3984C583.418 47.2591 583.304 46.1426 583.122 45.0488C582.963 43.9323 582.701 42.8727 582.336 41.8701C581.971 40.8675 581.47 39.9902 580.832 39.2383C580.217 38.4635 579.431 37.8597 578.474 37.4268C577.517 36.971 576.354 36.7432 574.987 36.7432C573.916 36.7432 572.937 36.9482 572.048 37.3584C571.159 37.7686 570.373 38.3268 569.689 39.0332C569.006 39.7396 568.436 40.5827 567.98 41.5625C567.525 42.5195 567.183 43.5563 566.955 44.6729L561.213 42.8271C561.486 41.5283 561.874 40.3776 562.375 39.375C562.899 38.3724 563.48 37.4951 564.118 36.7432C564.779 35.9912 565.474 35.3532 566.203 34.8291C566.955 34.2822 567.696 33.8265 568.425 33.4619C570.134 32.6188 571.979 32.1061 573.962 31.9238C576.696 31.9238 579.009 32.334 580.9 33.1543C582.792 33.9746 584.318 35.1823 585.48 36.7773C586.665 38.3724 587.508 40.3434 588.01 42.6904C588.534 45.0374 588.796 47.749 588.796 50.8252ZM583.464 60.3271C583.464 59.8714 583.475 59.4271 583.498 58.9941C583.521 58.5384 583.532 58.1055 583.532 57.6953C582.325 56.4648 581.128 55.5306 579.943 54.8926C578.781 54.2546 577.722 53.776 576.765 53.457C575.671 53.0924 574.611 52.8874 573.586 52.8418C572.173 52.8418 570.954 53.0469 569.929 53.457C568.926 53.8444 568.094 54.3685 567.434 55.0293C566.796 55.6901 566.317 56.4421 565.998 57.2852C565.702 58.1283 565.554 59.0055 565.554 59.917C565.554 60.8512 565.725 61.6943 566.066 62.4463C566.408 63.1982 566.887 63.8363 567.502 64.3604C568.14 64.8844 568.903 65.2946 569.792 65.5908C570.703 65.8643 571.717 66.001 572.834 66.001C573.928 65.9098 575.067 65.6592 576.252 65.249C577.277 64.8844 578.405 64.3262 579.636 63.5742C580.889 62.7995 582.165 61.7171 583.464 60.3271ZM614.157 45.2881C614.203 45.083 614.226 44.8779 614.226 44.6729C614.226 44.445 614.226 44.2057 614.226 43.9551C614.226 42.793 614.055 41.7106 613.713 40.708C613.394 39.6826 612.927 38.7939 612.312 38.042C611.719 37.2673 610.99 36.6634 610.124 36.2305C609.258 35.7747 608.301 35.5469 607.253 35.5469C606.045 35.5469 604.951 35.7064 603.972 36.0254C602.992 36.3216 602.149 36.766 601.442 37.3584C600.759 37.9508 600.223 38.6914 599.836 39.5801C599.449 40.446 599.255 41.46 599.255 42.6221C599.255 43.2829 599.414 43.9665 599.733 44.6729C600.075 45.3564 600.576 46.0059 601.237 46.6211C601.898 47.2363 602.707 47.7832 603.664 48.2617C604.644 48.7402 605.783 49.082 607.082 49.2871C609.52 49.6973 611.503 50.3011 613.029 51.0986C614.579 51.8734 615.786 52.7507 616.652 53.7305C617.541 54.7103 618.145 55.7243 618.464 56.7725C618.783 57.8206 618.942 58.8005 618.942 59.7119C618.942 60.2816 618.874 60.931 618.737 61.6602C618.623 62.3893 618.396 63.1413 618.054 63.916C617.712 64.6908 617.233 65.4541 616.618 66.2061C616.026 66.9352 615.251 67.596 614.294 68.1885C613.337 68.7581 612.186 69.2253 610.842 69.5898C609.52 69.9544 607.948 70.1367 606.125 70.1367C605.943 70.1367 605.533 70.1139 604.895 70.0684C604.279 70.0228 603.539 69.8747 602.673 69.624C601.83 69.3734 600.918 68.9974 599.938 68.4961C598.981 67.9948 598.07 67.2884 597.204 66.377C596.338 65.4655 595.575 64.3148 594.914 62.9248C594.276 61.5348 593.854 59.8372 593.649 57.832L599.255 57.5244C599.414 58.846 599.699 59.9512 600.109 60.8398C600.542 61.7285 601.032 62.4691 601.579 63.0615C602.149 63.6312 602.73 64.0755 603.322 64.3945C603.938 64.7135 604.507 64.9528 605.031 65.1123C605.578 65.249 606.034 65.3288 606.398 65.3516C606.786 65.3743 607.014 65.3857 607.082 65.3857C608.039 65.363 608.905 65.2035 609.68 64.9072C610.477 64.5882 611.149 64.1895 611.696 63.7109C612.243 63.2324 612.665 62.6855 612.961 62.0703C613.257 61.4323 613.405 60.7829 613.405 60.1221C613.405 59.5524 613.303 58.9941 613.098 58.4473C612.893 57.9004 612.505 57.3877 611.936 56.9092C611.389 56.4079 610.625 55.9521 609.646 55.542C608.688 55.1318 607.447 54.7673 605.92 54.4482C603.459 53.9697 601.431 53.2633 599.836 52.3291C598.264 51.3721 597.01 50.3353 596.076 49.2188C595.142 48.0794 594.493 46.9287 594.128 45.7666C593.763 44.6045 593.581 43.5563 593.581 42.6221C593.581 41.2321 593.82 39.8193 594.299 38.3838C594.777 36.9255 595.552 35.6038 596.623 34.4189C597.717 33.2113 599.141 32.2314 600.896 31.4795C602.65 30.7048 604.815 30.3174 607.39 30.3174C609.828 30.4769 612.004 31.0352 613.918 31.9922C614.738 32.4023 615.536 32.9264 616.311 33.5645C617.108 34.1797 617.814 34.943 618.43 35.8545C619.045 36.766 619.535 37.8369 619.899 39.0674C620.287 40.2751 620.48 41.6764 620.48 43.2715C620.48 43.6133 620.458 43.9779 620.412 44.3652C620.389 44.7298 620.355 45.1058 620.31 45.4932L614.157 45.2881Z" fill="#F8DCC3"/>
</svg>
