<svg width="399" height="77" viewBox="0 0 399 77" fill="none" xmlns="http://www.w3.org/2000/svg">
<path d="M24.917 4.12305L24.4385 8.9082H13.7061V52.6582H9.16016V8.9082H0.786133V3.98633L24.917 4.12305ZM52.9102 17.8633L52.1924 53.2734H47.9541L47.5098 41.3789C47.0085 42.8828 46.4616 44.2158 45.8691 45.3779C45.2995 46.5173 44.707 47.5199 44.0918 48.3857C43.4993 49.2288 42.8955 49.958 42.2803 50.5732C41.6878 51.1657 41.1068 51.667 40.5371 52.0771C39.2155 53.0114 37.8825 53.5811 36.5381 53.7861C34.738 53.7861 33.2227 53.376 31.9922 52.5557C30.7845 51.7354 29.8047 50.5049 29.0527 48.8643C28.3236 47.2236 27.7995 45.1842 27.4805 42.7461C27.1615 40.3079 27.002 37.471 27.002 34.2354C27.002 31.7516 27.0817 29.0856 27.2412 26.2373C27.4007 23.3662 27.6286 20.2673 27.9248 16.9404L34.1455 17.4531C33.5531 21.4408 33.1201 24.9271 32.8467 27.9121C32.596 30.8971 32.4707 33.4948 32.4707 35.7051C32.4707 37.8242 32.5618 39.6243 32.7441 41.1055C32.9264 42.5638 33.1543 43.7715 33.4277 44.7285C33.7012 45.6628 33.9974 46.3919 34.3164 46.916C34.6582 47.4401 34.9886 47.8275 35.3076 48.0781C35.6266 48.3288 35.9115 48.4769 36.1621 48.5225C36.4355 48.568 36.6292 48.5908 36.7432 48.5908C37.609 48.5908 38.4408 48.2148 39.2383 47.4629C40.0358 46.7109 40.7878 45.7083 41.4941 44.4551C42.2005 43.2018 42.8499 41.7549 43.4424 40.1143C44.0576 38.4736 44.6159 36.776 45.1172 35.0215C45.6185 33.2441 46.0628 31.4668 46.4502 29.6895C46.8604 27.8893 47.2021 26.2145 47.4756 24.665C47.749 23.1156 47.9655 21.7484 48.125 20.5635C48.2845 19.3558 48.387 18.4557 48.4326 17.8633H52.9102ZM69.6582 3.64453L69.5215 14.9922H76.3232V19.333H69.4531L68.9746 52.8633H64.7705L64.4971 19.333H56.8066V14.9922H64.4971L64.4287 3.30273L69.6582 3.64453ZM106.265 33.8252C106.219 36.1266 106.151 38.4167 106.06 40.6953C106.014 41.6751 105.968 42.7005 105.923 43.7715C105.877 44.8424 105.82 45.9248 105.752 47.0186C105.706 48.0895 105.638 49.1491 105.547 50.1973C105.479 51.2454 105.41 52.2253 105.342 53.1367L100.659 53C100.705 52.3392 100.739 51.6898 100.762 51.0518C100.785 50.4137 100.796 49.7757 100.796 49.1377C99.7705 50.2314 98.6882 51.0859 97.5488 51.7012C96.4095 52.3164 95.3271 52.7835 94.3018 53.1025C93.1169 53.4899 91.9434 53.7406 90.7812 53.8545C90.5306 53.9001 90.2913 53.9229 90.0635 53.9229C89.8584 53.9229 89.6305 53.9229 89.3799 53.9229C87.7848 53.9229 86.2581 53.695 84.7998 53.2393C83.3415 52.8063 82.0426 52.1341 80.9033 51.2227C79.7868 50.3112 78.8867 49.1719 78.2031 47.8047C77.5423 46.4147 77.2119 44.7855 77.2119 42.917C77.2119 41.2764 77.5309 39.7383 78.1689 38.3027C78.8298 36.8444 79.7412 35.5798 80.9033 34.5088C82.0882 33.415 83.5124 32.5492 85.1758 31.9111C86.8392 31.2731 88.6849 30.9313 90.7129 30.8857C90.7812 30.8857 91.1686 30.9085 91.875 30.9541C92.5814 30.9997 93.4359 31.1478 94.4385 31.3984C95.4639 31.6263 96.5576 32.0023 97.7197 32.5264C98.9046 33.0277 99.9984 33.734 101.001 34.6455C101.001 33.6201 100.978 32.5378 100.933 31.3984C100.887 30.2591 100.773 29.1426 100.591 28.0488C100.431 26.9323 100.169 25.8727 99.8047 24.8701C99.4401 23.8675 98.9388 22.9902 98.3008 22.2383C97.6855 21.4635 96.8994 20.8597 95.9424 20.4268C94.9854 19.971 93.8232 19.7432 92.4561 19.7432C91.3851 19.7432 90.4053 19.9482 89.5166 20.3584C88.6279 20.7686 87.8418 21.3268 87.1582 22.0332C86.4746 22.7396 85.9049 23.5827 85.4492 24.5625C84.9935 25.5195 84.6517 26.5563 84.4238 27.6729L78.6816 25.8271C78.9551 24.5283 79.3424 23.3776 79.8438 22.375C80.3678 21.3724 80.9489 20.4951 81.5869 19.7432C82.2477 18.9912 82.9427 18.3532 83.6719 17.8291C84.4238 17.2822 85.1644 16.8265 85.8936 16.4619C87.6025 15.6188 89.4482 15.1061 91.4307 14.9238C94.165 14.9238 96.4779 15.334 98.3691 16.1543C100.26 16.9746 101.787 18.1823 102.949 19.7773C104.134 21.3724 104.977 23.3434 105.479 25.6904C106.003 28.0374 106.265 30.749 106.265 33.8252ZM100.933 43.3271C100.933 42.8714 100.944 42.4271 100.967 41.9941C100.99 41.5384 101.001 41.1055 101.001 40.6953C99.7933 39.4648 98.597 38.5306 97.4121 37.8926C96.25 37.2546 95.1904 36.776 94.2334 36.457C93.1396 36.0924 92.0801 35.8874 91.0547 35.8418C89.6419 35.8418 88.4229 36.0469 87.3975 36.457C86.3949 36.8444 85.5632 37.3685 84.9023 38.0293C84.2643 38.6901 83.7858 39.4421 83.4668 40.2852C83.1706 41.1283 83.0225 42.0055 83.0225 42.917C83.0225 43.8512 83.1934 44.6943 83.5352 45.4463C83.877 46.1982 84.3555 46.8363 84.9707 47.3604C85.6087 47.8844 86.3721 48.2946 87.2607 48.5908C88.1722 48.8643 89.1862 49.001 90.3027 49.001C91.3965 48.9098 92.5358 48.6592 93.7207 48.249C94.7461 47.8844 95.874 47.3262 97.1045 46.5742C98.3577 45.7995 99.6338 44.7171 100.933 43.3271ZM121.201 3.64453L121.064 14.9922H127.866V19.333H120.996L120.518 52.8633H116.313L116.04 19.333H108.35V14.9922H116.04L115.972 3.30273L121.201 3.64453ZM140.342 3.64453L140.205 14.9922H147.007V19.333H140.137L139.658 52.8633H135.454L135.181 19.333H127.49V14.9922H135.181L135.112 3.30273L140.342 3.64453ZM177.632 32.6289C177.632 35.9102 177.244 38.8496 176.47 41.4473C175.718 44.0449 174.681 46.2552 173.359 48.0781C172.061 49.8783 170.522 51.2682 168.745 52.248C166.968 53.2051 165.076 53.6836 163.071 53.6836C161.043 53.6836 159.141 53.1823 157.363 52.1797C155.586 51.1771 154.036 49.7529 152.715 47.9072C151.393 46.0615 150.345 43.8512 149.57 41.2764C148.818 38.6787 148.442 35.7962 148.442 32.6289C148.442 29.9173 148.773 27.445 149.434 25.2119C150.117 22.9561 151.086 21.0192 152.339 19.4014C153.615 17.7835 155.153 16.5303 156.953 15.6416C158.776 14.7301 160.815 14.2744 163.071 14.2744C165.578 14.2744 167.743 14.7301 169.565 15.6416C171.388 16.5303 172.892 17.7835 174.077 19.4014C175.285 21.0192 176.174 22.9561 176.743 25.2119C177.336 27.445 177.632 29.9173 177.632 32.6289ZM172.334 32.6973C172.334 30.6465 172.152 28.778 171.787 27.0918C171.423 25.4056 170.853 23.9587 170.078 22.751C169.326 21.5205 168.369 20.5749 167.207 19.9141C166.045 19.2533 164.666 18.9229 163.071 18.9229C161.636 18.9229 160.337 19.2533 159.175 19.9141C158.035 20.5749 157.067 21.5205 156.27 22.751C155.472 23.9587 154.857 25.4056 154.424 27.0918C153.991 28.778 153.774 30.6465 153.774 32.6973C153.774 35.0898 154.014 37.2546 154.492 39.1914C154.993 41.1283 155.654 42.7917 156.475 44.1816C157.318 45.5716 158.298 46.6426 159.414 47.3945C160.553 48.1465 161.772 48.5225 163.071 48.5225C164.347 48.5225 165.544 48.1579 166.66 47.4287C167.799 46.6995 168.779 45.6514 169.6 44.2842C170.443 42.917 171.104 41.265 171.582 39.3281C172.083 37.3685 172.334 35.1582 172.334 32.6973ZM210.513 32.6289C210.513 35.9102 210.125 38.8496 209.351 41.4473C208.599 44.0449 207.562 46.2552 206.24 48.0781C204.941 49.8783 203.403 51.2682 201.626 52.248C199.849 53.2051 197.957 53.6836 195.952 53.6836C193.924 53.6836 192.021 53.1823 190.244 52.1797C188.467 51.1771 186.917 49.7529 185.596 47.9072C184.274 46.0615 183.226 43.8512 182.451 41.2764C181.699 38.6787 181.323 35.7962 181.323 32.6289C181.323 29.9173 181.654 27.445 182.314 25.2119C182.998 22.9561 183.966 21.0192 185.22 19.4014C186.496 17.7835 188.034 16.5303 189.834 15.6416C191.657 14.7301 193.696 14.2744 195.952 14.2744C198.459 14.2744 200.623 14.7301 202.446 15.6416C204.269 16.5303 205.773 17.7835 206.958 19.4014C208.166 21.0192 209.054 22.9561 209.624 25.2119C210.216 27.445 210.513 29.9173 210.513 32.6289ZM205.215 32.6973C205.215 30.6465 205.033 28.778 204.668 27.0918C204.303 25.4056 203.734 23.9587 202.959 22.751C202.207 21.5205 201.25 20.5749 200.088 19.9141C198.926 19.2533 197.547 18.9229 195.952 18.9229C194.517 18.9229 193.218 19.2533 192.056 19.9141C190.916 20.5749 189.948 21.5205 189.15 22.751C188.353 23.9587 187.738 25.4056 187.305 27.0918C186.872 28.778 186.655 30.6465 186.655 32.6973C186.655 35.0898 186.895 37.2546 187.373 39.1914C187.874 41.1283 188.535 42.7917 189.355 44.1816C190.199 45.5716 191.178 46.6426 192.295 47.3945C193.434 48.1465 194.653 48.5225 195.952 48.5225C197.228 48.5225 198.424 48.1579 199.541 47.4287C200.68 46.6995 201.66 45.6514 202.48 44.2842C203.324 42.917 203.984 41.265 204.463 39.3281C204.964 37.3685 205.215 35.1582 205.215 32.6973ZM259.731 13.6592C259.709 14.3428 259.652 15.0719 259.561 15.8467C259.469 16.5075 259.344 17.2822 259.185 18.1709C259.048 19.0596 258.82 19.9824 258.501 20.9395L252.178 20.085C252.428 19.1051 252.611 18.1709 252.725 17.2822C252.839 16.3708 252.896 15.5163 252.896 14.7188C252.896 13.0781 252.679 11.6426 252.246 10.4121C251.813 9.18164 251.232 8.14486 250.503 7.30176C249.774 6.45866 248.919 5.83203 247.939 5.42188C246.982 4.98893 245.968 4.77246 244.897 4.77246C243.621 4.77246 242.493 5.10286 241.514 5.76367C240.557 6.40169 239.748 7.25618 239.087 8.32715C238.426 9.37533 237.925 10.5716 237.583 11.916C237.241 13.2376 237.07 14.5934 237.07 15.9834C237.07 17.3506 237.298 18.6608 237.754 19.9141C238.232 21.1445 238.87 22.318 239.668 23.4346C240.488 24.5283 241.434 25.5537 242.505 26.5107C243.576 27.4678 244.727 28.3451 245.957 29.1426C248.076 30.5098 249.865 31.7744 251.323 32.9365C252.804 34.0986 254.001 35.238 254.912 36.3545C255.824 37.4482 256.484 38.542 256.895 39.6357C257.305 40.7295 257.51 41.8916 257.51 43.1221C257.51 44.4665 257.282 45.7767 256.826 47.0527C256.393 48.3288 255.687 49.4567 254.707 50.4365C253.727 51.4163 252.451 52.2025 250.879 52.7949C249.329 53.3874 247.427 53.6836 245.171 53.6836C242.983 53.6836 241.001 53.3418 239.224 52.6582C237.469 51.9518 235.965 50.9834 234.712 49.7529C233.481 48.5225 232.524 47.0641 231.841 45.3779C231.18 43.6689 230.85 41.8005 230.85 39.7725L237.275 40.0459C237.275 42.279 237.537 44.0563 238.062 45.3779C238.608 46.6995 239.258 47.7021 240.01 48.3857C240.785 49.0693 241.582 49.5137 242.402 49.7188C243.245 49.901 243.963 49.9922 244.556 49.9922C245.239 49.9922 245.968 49.8896 246.743 49.6846C247.541 49.4567 248.27 49.0921 248.931 48.5908C249.614 48.0667 250.173 47.3945 250.605 46.5742C251.061 45.7311 251.289 44.6943 251.289 43.4639C251.289 42.1878 250.981 41.0257 250.366 39.9775C249.774 38.9066 248.988 37.904 248.008 36.9697C247.028 36.0355 245.911 35.1354 244.658 34.2695C243.405 33.4036 242.118 32.515 240.796 31.6035C239.497 30.6921 238.221 29.735 236.968 28.7324C235.715 27.7298 234.598 26.6361 233.618 25.4512C232.638 24.2435 231.841 22.9105 231.226 21.4521C230.633 19.9938 230.337 18.3532 230.337 16.5303C230.337 15.3682 230.428 14.1719 230.61 12.9414C230.815 11.7109 231.134 10.5146 231.567 9.35254C232.023 8.16764 232.616 7.0625 233.345 6.03711C234.097 4.98893 235.031 4.07747 236.147 3.30273C237.264 2.52799 238.574 1.91276 240.078 1.45703C241.605 1.0013 243.359 0.773438 245.342 0.773438C247.415 0.81901 249.215 1.09245 250.742 1.59375C252.269 2.09505 253.568 2.73307 254.639 3.50781C255.71 4.25977 256.576 5.10286 257.236 6.03711C257.897 6.97135 258.41 7.91699 258.774 8.87402C259.139 9.80827 259.39 10.6969 259.526 11.54C259.663 12.3831 259.731 13.0895 259.731 13.6592ZM273.643 3.64453L273.506 14.9922H280.308V19.333H273.438L272.959 52.8633H268.755L268.481 19.333H260.791V14.9922H268.481L268.413 3.30273L273.643 3.64453ZM309.189 17.8633L308.472 53.2734H304.233L303.789 41.3789C303.288 42.8828 302.741 44.2158 302.148 45.3779C301.579 46.5173 300.986 47.5199 300.371 48.3857C299.779 49.2288 299.175 49.958 298.56 50.5732C297.967 51.1657 297.386 51.667 296.816 52.0771C295.495 53.0114 294.162 53.5811 292.817 53.7861C291.017 53.7861 289.502 53.376 288.271 52.5557C287.064 51.7354 286.084 50.5049 285.332 48.8643C284.603 47.2236 284.079 45.1842 283.76 42.7461C283.441 40.3079 283.281 37.471 283.281 34.2354C283.281 31.7516 283.361 29.0856 283.521 26.2373C283.68 23.3662 283.908 20.2673 284.204 16.9404L290.425 17.4531C289.832 21.4408 289.399 24.9271 289.126 27.9121C288.875 30.8971 288.75 33.4948 288.75 35.7051C288.75 37.8242 288.841 39.6243 289.023 41.1055C289.206 42.5638 289.434 43.7715 289.707 44.7285C289.98 45.6628 290.277 46.3919 290.596 46.916C290.938 47.4401 291.268 47.8275 291.587 48.0781C291.906 48.3288 292.191 48.4769 292.441 48.5225C292.715 48.568 292.909 48.5908 293.022 48.5908C293.888 48.5908 294.72 48.2148 295.518 47.4629C296.315 46.7109 297.067 45.7083 297.773 44.4551C298.48 43.2018 299.129 41.7549 299.722 40.1143C300.337 38.4736 300.895 36.776 301.396 35.0215C301.898 33.2441 302.342 31.4668 302.729 29.6895C303.14 27.8893 303.481 26.2145 303.755 24.665C304.028 23.1156 304.245 21.7484 304.404 20.5635C304.564 19.3558 304.666 18.4557 304.712 17.8633H309.189ZM345.557 3.64453V52.3848H340.874V47.0527C340.418 47.873 339.917 48.5908 339.37 49.2061C338.846 49.8213 338.299 50.3568 337.729 50.8125C337.16 51.2682 336.579 51.6556 335.986 51.9746C335.417 52.2708 334.858 52.5215 334.312 52.7266C333.058 53.2051 331.759 53.4785 330.415 53.5469C328.296 53.5469 326.325 53.0798 324.502 52.1455C322.679 51.2113 321.095 49.8783 319.751 48.1465C318.429 46.4147 317.393 44.3184 316.641 41.8574C315.889 39.3737 315.513 36.6051 315.513 33.5518C315.513 30.9541 315.798 28.5046 316.367 26.2031C316.96 23.9017 317.803 21.8851 318.896 20.1533C320.013 18.4215 321.357 17.0544 322.93 16.0518C324.525 15.0264 326.325 14.5137 328.33 14.5137C330.016 14.582 331.634 14.8896 333.184 15.4365C333.844 15.6644 334.517 15.9606 335.2 16.3252C335.907 16.6898 336.59 17.1455 337.251 17.6924C337.912 18.2165 338.527 18.8317 339.097 19.5381C339.689 20.2445 340.202 21.0648 340.635 21.999V3.84961L345.557 3.64453ZM340.361 34.3721C340.293 32.4808 340.065 30.806 339.678 29.3477C339.313 27.8665 338.846 26.5791 338.276 25.4854C337.707 24.3916 337.057 23.4801 336.328 22.751C335.599 21.999 334.858 21.3952 334.106 20.9395C333.354 20.4837 332.603 20.1647 331.851 19.9824C331.099 19.7773 330.415 19.6748 329.8 19.6748C328.182 19.6748 326.792 20.0394 325.63 20.7686C324.468 21.4977 323.511 22.5231 322.759 23.8447C322.007 25.1663 321.449 26.75 321.084 28.5957C320.742 30.4414 320.571 32.4808 320.571 34.7139C320.571 37.3571 320.913 39.6016 321.597 41.4473C322.303 43.2702 323.169 44.7513 324.194 45.8906C325.243 47.0072 326.37 47.8161 327.578 48.3174C328.809 48.8187 329.948 49.0693 330.996 49.0693C332.135 49.0693 333.263 48.7959 334.38 48.249C335.496 47.6794 336.499 46.8021 337.388 45.6172C338.276 44.4095 338.994 42.8828 339.541 41.0371C340.088 39.1914 340.361 36.9697 340.361 34.3721ZM360.151 6.85742C360.151 7.42708 360.037 7.96257 359.81 8.46387C359.604 8.94238 359.32 9.36393 358.955 9.72852C358.59 10.0703 358.158 10.3438 357.656 10.5488C357.178 10.7539 356.665 10.8564 356.118 10.8564C355.571 10.8564 355.047 10.7539 354.546 10.5488C354.067 10.3438 353.646 10.0703 353.281 9.72852C352.939 9.36393 352.655 8.94238 352.427 8.46387C352.222 7.96257 352.119 7.42708 352.119 6.85742C352.119 6.31055 352.222 5.79785 352.427 5.31934C352.655 4.81803 352.939 4.39648 353.281 4.05469C353.646 3.6901 354.067 3.40527 354.546 3.2002C355.047 2.99512 355.571 2.89258 356.118 2.89258C356.665 2.89258 357.178 2.99512 357.656 3.2002C358.158 3.40527 358.59 3.6901 358.955 4.05469C359.32 4.39648 359.604 4.81803 359.81 5.31934C360.037 5.79785 360.151 6.31055 360.151 6.85742ZM358.853 18L358.271 52.1455H353.589L353.11 17.5898L358.853 18ZM394.331 32.6289C394.331 35.9102 393.944 38.8496 393.169 41.4473C392.417 44.0449 391.38 46.2552 390.059 48.0781C388.76 49.8783 387.222 51.2682 385.444 52.248C383.667 53.2051 381.776 53.6836 379.771 53.6836C377.743 53.6836 375.84 53.1823 374.062 52.1797C372.285 51.1771 370.736 49.7529 369.414 47.9072C368.092 46.0615 367.044 43.8512 366.27 41.2764C365.518 38.6787 365.142 35.7962 365.142 32.6289C365.142 29.9173 365.472 27.445 366.133 25.2119C366.816 22.9561 367.785 21.0192 369.038 19.4014C370.314 17.7835 371.852 16.5303 373.652 15.6416C375.475 14.7301 377.515 14.2744 379.771 14.2744C382.277 14.2744 384.442 14.7301 386.265 15.6416C388.088 16.5303 389.591 17.7835 390.776 19.4014C391.984 21.0192 392.873 22.9561 393.442 25.2119C394.035 27.445 394.331 29.9173 394.331 32.6289ZM389.033 32.6973C389.033 30.6465 388.851 28.778 388.486 27.0918C388.122 25.4056 387.552 23.9587 386.777 22.751C386.025 21.5205 385.068 20.5749 383.906 19.9141C382.744 19.2533 381.366 18.9229 379.771 18.9229C378.335 18.9229 377.036 19.2533 375.874 19.9141C374.735 20.5749 373.766 21.5205 372.969 22.751C372.171 23.9587 371.556 25.4056 371.123 27.0918C370.69 28.778 370.474 30.6465 370.474 32.6973C370.474 35.0898 370.713 37.2546 371.191 39.1914C371.693 41.1283 372.354 42.7917 373.174 44.1816C374.017 45.5716 374.997 46.6426 376.113 47.3945C377.253 48.1465 378.472 48.5225 379.771 48.5225C381.047 48.5225 382.243 48.1579 383.359 47.4287C384.499 46.6995 385.479 45.6514 386.299 44.2842C387.142 42.917 387.803 41.265 388.281 39.3281C388.783 37.3685 389.033 35.1582 389.033 32.6973Z" fill="white"/>
<path d="M26.917 4.12305L26.4385 8.9082H15.7061V52.6582H11.1602V8.9082H2.78613V3.98633L26.917 4.12305ZM54.9102 17.8633L54.1924 53.2734H49.9541L49.5098 41.3789C49.0085 42.8828 48.4616 44.2158 47.8691 45.3779C47.2995 46.5173 46.707 47.5199 46.0918 48.3857C45.4993 49.2288 44.8955 49.958 44.2803 50.5732C43.6878 51.1657 43.1068 51.667 42.5371 52.0771C41.2155 53.0114 39.8825 53.5811 38.5381 53.7861C36.738 53.7861 35.2227 53.376 33.9922 52.5557C32.7845 51.7354 31.8047 50.5049 31.0527 48.8643C30.3236 47.2236 29.7995 45.1842 29.4805 42.7461C29.1615 40.3079 29.002 37.471 29.002 34.2354C29.002 31.7516 29.0817 29.0856 29.2412 26.2373C29.4007 23.3662 29.6286 20.2673 29.9248 16.9404L36.1455 17.4531C35.5531 21.4408 35.1201 24.9271 34.8467 27.9121C34.596 30.8971 34.4707 33.4948 34.4707 35.7051C34.4707 37.8242 34.5618 39.6243 34.7441 41.1055C34.9264 42.5638 35.1543 43.7715 35.4277 44.7285C35.7012 45.6628 35.9974 46.3919 36.3164 46.916C36.6582 47.4401 36.9886 47.8275 37.3076 48.0781C37.6266 48.3288 37.9115 48.4769 38.1621 48.5225C38.4355 48.568 38.6292 48.5908 38.7432 48.5908C39.609 48.5908 40.4408 48.2148 41.2383 47.4629C42.0358 46.7109 42.7878 45.7083 43.4941 44.4551C44.2005 43.2018 44.8499 41.7549 45.4424 40.1143C46.0576 38.4736 46.6159 36.776 47.1172 35.0215C47.6185 33.2441 48.0628 31.4668 48.4502 29.6895C48.8604 27.8893 49.2021 26.2145 49.4756 24.665C49.749 23.1156 49.9655 21.7484 50.125 20.5635C50.2845 19.3558 50.387 18.4557 50.4326 17.8633H54.9102ZM71.6582 3.64453L71.5215 14.9922H78.3232V19.333H71.4531L70.9746 52.8633H66.7705L66.4971 19.333H58.8066V14.9922H66.4971L66.4287 3.30273L71.6582 3.64453ZM108.265 33.8252C108.219 36.1266 108.151 38.4167 108.06 40.6953C108.014 41.6751 107.968 42.7005 107.923 43.7715C107.877 44.8424 107.82 45.9248 107.752 47.0186C107.706 48.0895 107.638 49.1491 107.547 50.1973C107.479 51.2454 107.41 52.2253 107.342 53.1367L102.659 53C102.705 52.3392 102.739 51.6898 102.762 51.0518C102.785 50.4137 102.796 49.7757 102.796 49.1377C101.771 50.2314 100.688 51.0859 99.5488 51.7012C98.4095 52.3164 97.3271 52.7835 96.3018 53.1025C95.1169 53.4899 93.9434 53.7406 92.7812 53.8545C92.5306 53.9001 92.2913 53.9229 92.0635 53.9229C91.8584 53.9229 91.6305 53.9229 91.3799 53.9229C89.7848 53.9229 88.2581 53.695 86.7998 53.2393C85.3415 52.8063 84.0426 52.1341 82.9033 51.2227C81.7868 50.3112 80.8867 49.1719 80.2031 47.8047C79.5423 46.4147 79.2119 44.7855 79.2119 42.917C79.2119 41.2764 79.5309 39.7383 80.1689 38.3027C80.8298 36.8444 81.7412 35.5798 82.9033 34.5088C84.0882 33.415 85.5124 32.5492 87.1758 31.9111C88.8392 31.2731 90.6849 30.9313 92.7129 30.8857C92.7812 30.8857 93.1686 30.9085 93.875 30.9541C94.5814 30.9997 95.4359 31.1478 96.4385 31.3984C97.4639 31.6263 98.5576 32.0023 99.7197 32.5264C100.905 33.0277 101.998 33.734 103.001 34.6455C103.001 33.6201 102.978 32.5378 102.933 31.3984C102.887 30.2591 102.773 29.1426 102.591 28.0488C102.431 26.9323 102.169 25.8727 101.805 24.8701C101.44 23.8675 100.939 22.9902 100.301 22.2383C99.6855 21.4635 98.8994 20.8597 97.9424 20.4268C96.9854 19.971 95.8232 19.7432 94.4561 19.7432C93.3851 19.7432 92.4053 19.9482 91.5166 20.3584C90.6279 20.7686 89.8418 21.3268 89.1582 22.0332C88.4746 22.7396 87.9049 23.5827 87.4492 24.5625C86.9935 25.5195 86.6517 26.5563 86.4238 27.6729L80.6816 25.8271C80.9551 24.5283 81.3424 23.3776 81.8438 22.375C82.3678 21.3724 82.9489 20.4951 83.5869 19.7432C84.2477 18.9912 84.9427 18.3532 85.6719 17.8291C86.4238 17.2822 87.1644 16.8265 87.8936 16.4619C89.6025 15.6188 91.4482 15.1061 93.4307 14.9238C96.165 14.9238 98.4779 15.334 100.369 16.1543C102.26 16.9746 103.787 18.1823 104.949 19.7773C106.134 21.3724 106.977 23.3434 107.479 25.6904C108.003 28.0374 108.265 30.749 108.265 33.8252ZM102.933 43.3271C102.933 42.8714 102.944 42.4271 102.967 41.9941C102.99 41.5384 103.001 41.1055 103.001 40.6953C101.793 39.4648 100.597 38.5306 99.4121 37.8926C98.25 37.2546 97.1904 36.776 96.2334 36.457C95.1396 36.0924 94.0801 35.8874 93.0547 35.8418C91.6419 35.8418 90.4229 36.0469 89.3975 36.457C88.3949 36.8444 87.5632 37.3685 86.9023 38.0293C86.2643 38.6901 85.7858 39.4421 85.4668 40.2852C85.1706 41.1283 85.0225 42.0055 85.0225 42.917C85.0225 43.8512 85.1934 44.6943 85.5352 45.4463C85.877 46.1982 86.3555 46.8363 86.9707 47.3604C87.6087 47.8844 88.3721 48.2946 89.2607 48.5908C90.1722 48.8643 91.1862 49.001 92.3027 49.001C93.3965 48.9098 94.5358 48.6592 95.7207 48.249C96.7461 47.8844 97.874 47.3262 99.1045 46.5742C100.358 45.7995 101.634 44.7171 102.933 43.3271ZM123.201 3.64453L123.064 14.9922H129.866V19.333H122.996L122.518 52.8633H118.313L118.04 19.333H110.35V14.9922H118.04L117.972 3.30273L123.201 3.64453ZM142.342 3.64453L142.205 14.9922H149.007V19.333H142.137L141.658 52.8633H137.454L137.181 19.333H129.49V14.9922H137.181L137.112 3.30273L142.342 3.64453ZM179.632 32.6289C179.632 35.9102 179.244 38.8496 178.47 41.4473C177.718 44.0449 176.681 46.2552 175.359 48.0781C174.061 49.8783 172.522 51.2682 170.745 52.248C168.968 53.2051 167.076 53.6836 165.071 53.6836C163.043 53.6836 161.141 53.1823 159.363 52.1797C157.586 51.1771 156.036 49.7529 154.715 47.9072C153.393 46.0615 152.345 43.8512 151.57 41.2764C150.818 38.6787 150.442 35.7962 150.442 32.6289C150.442 29.9173 150.773 27.445 151.434 25.2119C152.117 22.9561 153.086 21.0192 154.339 19.4014C155.615 17.7835 157.153 16.5303 158.953 15.6416C160.776 14.7301 162.815 14.2744 165.071 14.2744C167.578 14.2744 169.743 14.7301 171.565 15.6416C173.388 16.5303 174.892 17.7835 176.077 19.4014C177.285 21.0192 178.174 22.9561 178.743 25.2119C179.336 27.445 179.632 29.9173 179.632 32.6289ZM174.334 32.6973C174.334 30.6465 174.152 28.778 173.787 27.0918C173.423 25.4056 172.853 23.9587 172.078 22.751C171.326 21.5205 170.369 20.5749 169.207 19.9141C168.045 19.2533 166.666 18.9229 165.071 18.9229C163.636 18.9229 162.337 19.2533 161.175 19.9141C160.035 20.5749 159.067 21.5205 158.27 22.751C157.472 23.9587 156.857 25.4056 156.424 27.0918C155.991 28.778 155.774 30.6465 155.774 32.6973C155.774 35.0898 156.014 37.2546 156.492 39.1914C156.993 41.1283 157.654 42.7917 158.475 44.1816C159.318 45.5716 160.298 46.6426 161.414 47.3945C162.553 48.1465 163.772 48.5225 165.071 48.5225C166.347 48.5225 167.544 48.1579 168.66 47.4287C169.799 46.6995 170.779 45.6514 171.6 44.2842C172.443 42.917 173.104 41.265 173.582 39.3281C174.083 37.3685 174.334 35.1582 174.334 32.6973ZM212.513 32.6289C212.513 35.9102 212.125 38.8496 211.351 41.4473C210.599 44.0449 209.562 46.2552 208.24 48.0781C206.941 49.8783 205.403 51.2682 203.626 52.248C201.849 53.2051 199.957 53.6836 197.952 53.6836C195.924 53.6836 194.021 53.1823 192.244 52.1797C190.467 51.1771 188.917 49.7529 187.596 47.9072C186.274 46.0615 185.226 43.8512 184.451 41.2764C183.699 38.6787 183.323 35.7962 183.323 32.6289C183.323 29.9173 183.654 27.445 184.314 25.2119C184.998 22.9561 185.966 21.0192 187.22 19.4014C188.496 17.7835 190.034 16.5303 191.834 15.6416C193.657 14.7301 195.696 14.2744 197.952 14.2744C200.459 14.2744 202.623 14.7301 204.446 15.6416C206.269 16.5303 207.773 17.7835 208.958 19.4014C210.166 21.0192 211.054 22.9561 211.624 25.2119C212.216 27.445 212.513 29.9173 212.513 32.6289ZM207.215 32.6973C207.215 30.6465 207.033 28.778 206.668 27.0918C206.303 25.4056 205.734 23.9587 204.959 22.751C204.207 21.5205 203.25 20.5749 202.088 19.9141C200.926 19.2533 199.547 18.9229 197.952 18.9229C196.517 18.9229 195.218 19.2533 194.056 19.9141C192.916 20.5749 191.948 21.5205 191.15 22.751C190.353 23.9587 189.738 25.4056 189.305 27.0918C188.872 28.778 188.655 30.6465 188.655 32.6973C188.655 35.0898 188.895 37.2546 189.373 39.1914C189.874 41.1283 190.535 42.7917 191.355 44.1816C192.199 45.5716 193.178 46.6426 194.295 47.3945C195.434 48.1465 196.653 48.5225 197.952 48.5225C199.228 48.5225 200.424 48.1579 201.541 47.4287C202.68 46.6995 203.66 45.6514 204.48 44.2842C205.324 42.917 205.984 41.265 206.463 39.3281C206.964 37.3685 207.215 35.1582 207.215 32.6973ZM261.731 13.6592C261.709 14.3428 261.652 15.0719 261.561 15.8467C261.469 16.5075 261.344 17.2822 261.185 18.1709C261.048 19.0596 260.82 19.9824 260.501 20.9395L254.178 20.085C254.428 19.1051 254.611 18.1709 254.725 17.2822C254.839 16.3708 254.896 15.5163 254.896 14.7188C254.896 13.0781 254.679 11.6426 254.246 10.4121C253.813 9.18164 253.232 8.14486 252.503 7.30176C251.774 6.45866 250.919 5.83203 249.939 5.42188C248.982 4.98893 247.968 4.77246 246.897 4.77246C245.621 4.77246 244.493 5.10286 243.514 5.76367C242.557 6.40169 241.748 7.25618 241.087 8.32715C240.426 9.37533 239.925 10.5716 239.583 11.916C239.241 13.2376 239.07 14.5934 239.07 15.9834C239.07 17.3506 239.298 18.6608 239.754 19.9141C240.232 21.1445 240.87 22.318 241.668 23.4346C242.488 24.5283 243.434 25.5537 244.505 26.5107C245.576 27.4678 246.727 28.3451 247.957 29.1426C250.076 30.5098 251.865 31.7744 253.323 32.9365C254.804 34.0986 256.001 35.238 256.912 36.3545C257.824 37.4482 258.484 38.542 258.895 39.6357C259.305 40.7295 259.51 41.8916 259.51 43.1221C259.51 44.4665 259.282 45.7767 258.826 47.0527C258.393 48.3288 257.687 49.4567 256.707 50.4365C255.727 51.4163 254.451 52.2025 252.879 52.7949C251.329 53.3874 249.427 53.6836 247.171 53.6836C244.983 53.6836 243.001 53.3418 241.224 52.6582C239.469 51.9518 237.965 50.9834 236.712 49.7529C235.481 48.5225 234.524 47.0641 233.841 45.3779C233.18 43.6689 232.85 41.8005 232.85 39.7725L239.275 40.0459C239.275 42.279 239.537 44.0563 240.062 45.3779C240.608 46.6995 241.258 47.7021 242.01 48.3857C242.785 49.0693 243.582 49.5137 244.402 49.7188C245.245 49.901 245.963 49.9922 246.556 49.9922C247.239 49.9922 247.968 49.8896 248.743 49.6846C249.541 49.4567 250.27 49.0921 250.931 48.5908C251.614 48.0667 252.173 47.3945 252.605 46.5742C253.061 45.7311 253.289 44.6943 253.289 43.4639C253.289 42.1878 252.981 41.0257 252.366 39.9775C251.774 38.9066 250.988 37.904 250.008 36.9697C249.028 36.0355 247.911 35.1354 246.658 34.2695C245.405 33.4036 244.118 32.515 242.796 31.6035C241.497 30.6921 240.221 29.735 238.968 28.7324C237.715 27.7298 236.598 26.6361 235.618 25.4512C234.638 24.2435 233.841 22.9105 233.226 21.4521C232.633 19.9938 232.337 18.3532 232.337 16.5303C232.337 15.3682 232.428 14.1719 232.61 12.9414C232.815 11.7109 233.134 10.5146 233.567 9.35254C234.023 8.16764 234.616 7.0625 235.345 6.03711C236.097 4.98893 237.031 4.07747 238.147 3.30273C239.264 2.52799 240.574 1.91276 242.078 1.45703C243.605 1.0013 245.359 0.773438 247.342 0.773438C249.415 0.81901 251.215 1.09245 252.742 1.59375C254.269 2.09505 255.568 2.73307 256.639 3.50781C257.71 4.25977 258.576 5.10286 259.236 6.03711C259.897 6.97135 260.41 7.91699 260.774 8.87402C261.139 9.80827 261.39 10.6969 261.526 11.54C261.663 12.3831 261.731 13.0895 261.731 13.6592ZM275.643 3.64453L275.506 14.9922H282.308V19.333H275.438L274.959 52.8633H270.755L270.481 19.333H262.791V14.9922H270.481L270.413 3.30273L275.643 3.64453ZM311.189 17.8633L310.472 53.2734H306.233L305.789 41.3789C305.288 42.8828 304.741 44.2158 304.148 45.3779C303.579 46.5173 302.986 47.5199 302.371 48.3857C301.779 49.2288 301.175 49.958 300.56 50.5732C299.967 51.1657 299.386 51.667 298.816 52.0771C297.495 53.0114 296.162 53.5811 294.817 53.7861C293.017 53.7861 291.502 53.376 290.271 52.5557C289.064 51.7354 288.084 50.5049 287.332 48.8643C286.603 47.2236 286.079 45.1842 285.76 42.7461C285.441 40.3079 285.281 37.471 285.281 34.2354C285.281 31.7516 285.361 29.0856 285.521 26.2373C285.68 23.3662 285.908 20.2673 286.204 16.9404L292.425 17.4531C291.832 21.4408 291.399 24.9271 291.126 27.9121C290.875 30.8971 290.75 33.4948 290.75 35.7051C290.75 37.8242 290.841 39.6243 291.023 41.1055C291.206 42.5638 291.434 43.7715 291.707 44.7285C291.98 45.6628 292.277 46.3919 292.596 46.916C292.938 47.4401 293.268 47.8275 293.587 48.0781C293.906 48.3288 294.191 48.4769 294.441 48.5225C294.715 48.568 294.909 48.5908 295.022 48.5908C295.888 48.5908 296.72 48.2148 297.518 47.4629C298.315 46.7109 299.067 45.7083 299.773 44.4551C300.48 43.2018 301.129 41.7549 301.722 40.1143C302.337 38.4736 302.895 36.776 303.396 35.0215C303.898 33.2441 304.342 31.4668 304.729 29.6895C305.14 27.8893 305.481 26.2145 305.755 24.665C306.028 23.1156 306.245 21.7484 306.404 20.5635C306.564 19.3558 306.666 18.4557 306.712 17.8633H311.189ZM347.557 3.64453V52.3848H342.874V47.0527C342.418 47.873 341.917 48.5908 341.37 49.2061C340.846 49.8213 340.299 50.3568 339.729 50.8125C339.16 51.2682 338.579 51.6556 337.986 51.9746C337.417 52.2708 336.858 52.5215 336.312 52.7266C335.058 53.2051 333.759 53.4785 332.415 53.5469C330.296 53.5469 328.325 53.0798 326.502 52.1455C324.679 51.2113 323.095 49.8783 321.751 48.1465C320.429 46.4147 319.393 44.3184 318.641 41.8574C317.889 39.3737 317.513 36.6051 317.513 33.5518C317.513 30.9541 317.798 28.5046 318.367 26.2031C318.96 23.9017 319.803 21.8851 320.896 20.1533C322.013 18.4215 323.357 17.0544 324.93 16.0518C326.525 15.0264 328.325 14.5137 330.33 14.5137C332.016 14.582 333.634 14.8896 335.184 15.4365C335.844 15.6644 336.517 15.9606 337.2 16.3252C337.907 16.6898 338.59 17.1455 339.251 17.6924C339.912 18.2165 340.527 18.8317 341.097 19.5381C341.689 20.2445 342.202 21.0648 342.635 21.999V3.84961L347.557 3.64453ZM342.361 34.3721C342.293 32.4808 342.065 30.806 341.678 29.3477C341.313 27.8665 340.846 26.5791 340.276 25.4854C339.707 24.3916 339.057 23.4801 338.328 22.751C337.599 21.999 336.858 21.3952 336.106 20.9395C335.354 20.4837 334.603 20.1647 333.851 19.9824C333.099 19.7773 332.415 19.6748 331.8 19.6748C330.182 19.6748 328.792 20.0394 327.63 20.7686C326.468 21.4977 325.511 22.5231 324.759 23.8447C324.007 25.1663 323.449 26.75 323.084 28.5957C322.742 30.4414 322.571 32.4808 322.571 34.7139C322.571 37.3571 322.913 39.6016 323.597 41.4473C324.303 43.2702 325.169 44.7513 326.194 45.8906C327.243 47.0072 328.37 47.8161 329.578 48.3174C330.809 48.8187 331.948 49.0693 332.996 49.0693C334.135 49.0693 335.263 48.7959 336.38 48.249C337.496 47.6794 338.499 46.8021 339.388 45.6172C340.276 44.4095 340.994 42.8828 341.541 41.0371C342.088 39.1914 342.361 36.9697 342.361 34.3721ZM362.151 6.85742C362.151 7.42708 362.037 7.96257 361.81 8.46387C361.604 8.94238 361.32 9.36393 360.955 9.72852C360.59 10.0703 360.158 10.3438 359.656 10.5488C359.178 10.7539 358.665 10.8564 358.118 10.8564C357.571 10.8564 357.047 10.7539 356.546 10.5488C356.067 10.3438 355.646 10.0703 355.281 9.72852C354.939 9.36393 354.655 8.94238 354.427 8.46387C354.222 7.96257 354.119 7.42708 354.119 6.85742C354.119 6.31055 354.222 5.79785 354.427 5.31934C354.655 4.81803 354.939 4.39648 355.281 4.05469C355.646 3.6901 356.067 3.40527 356.546 3.2002C357.047 2.99512 357.571 2.89258 358.118 2.89258C358.665 2.89258 359.178 2.99512 359.656 3.2002C360.158 3.40527 360.59 3.6901 360.955 4.05469C361.32 4.39648 361.604 4.81803 361.81 5.31934C362.037 5.79785 362.151 6.31055 362.151 6.85742ZM360.853 18L360.271 52.1455H355.589L355.11 17.5898L360.853 18ZM396.331 32.6289C396.331 35.9102 395.944 38.8496 395.169 41.4473C394.417 44.0449 393.38 46.2552 392.059 48.0781C390.76 49.8783 389.222 51.2682 387.444 52.248C385.667 53.2051 383.776 53.6836 381.771 53.6836C379.743 53.6836 377.84 53.1823 376.062 52.1797C374.285 51.1771 372.736 49.7529 371.414 47.9072C370.092 46.0615 369.044 43.8512 368.27 41.2764C367.518 38.6787 367.142 35.7962 367.142 32.6289C367.142 29.9173 367.472 27.445 368.133 25.2119C368.816 22.9561 369.785 21.0192 371.038 19.4014C372.314 17.7835 373.852 16.5303 375.652 15.6416C377.475 14.7301 379.515 14.2744 381.771 14.2744C384.277 14.2744 386.442 14.7301 388.265 15.6416C390.088 16.5303 391.591 17.7835 392.776 19.4014C393.984 21.0192 394.873 22.9561 395.442 25.2119C396.035 27.445 396.331 29.9173 396.331 32.6289ZM391.033 32.6973C391.033 30.6465 390.851 28.778 390.486 27.0918C390.122 25.4056 389.552 23.9587 388.777 22.751C388.025 21.5205 387.068 20.5749 385.906 19.9141C384.744 19.2533 383.366 18.9229 381.771 18.9229C380.335 18.9229 379.036 19.2533 377.874 19.9141C376.735 20.5749 375.766 21.5205 374.969 22.751C374.171 23.9587 373.556 25.4056 373.123 27.0918C372.69 28.778 372.474 30.6465 372.474 32.6973C372.474 35.0898 372.713 37.2546 373.191 39.1914C373.693 41.1283 374.354 42.7917 375.174 44.1816C376.017 45.5716 376.997 46.6426 378.113 47.3945C379.253 48.1465 380.472 48.5225 381.771 48.5225C383.047 48.5225 384.243 48.1579 385.359 47.4287C386.499 46.6995 387.479 45.6514 388.299 44.2842C389.142 42.917 389.803 41.265 390.281 39.3281C390.783 37.3685 391.033 35.1582 391.033 32.6973Z" fill="#F8DCC3"/>
</svg>
