<svg xmlns="http://www.w3.org/2000/svg" viewBox="0 0 669.29 507.14"><defs><style>.cls-1{fill:#fff;}</style></defs><title>logoRecurso 1</title><g id="Capa_2" data-name="Capa 2"><g id="Page_1" data-name="Page 1"><g id="Layer_1" data-name="Layer 1"><path d="M440.37,285.05a349.5,349.5,0,0,0,12.05-53.15,425.38,425.38,0,0,0,4.19-43.64c-.58-.44-1.17-.87-1.78-1.3l-9.21-6.09-7.38-4-1.84-1-5.67-2.41-1.84-.43a5,5,0,0,1-4.25,1.56l-5-.57-4.82-.56-2.13,3.4-2.27,6.66-1.7,8.22-4-7.37a8.91,8.91,0,0,1-1.27-4.68l.56-4.25.85-4c-2,1.7-4.25,5.25-6.8,10.07l-5.39,10.49-.7-11.63v-1.27c.14-4.26,1.13-7.8,3.26-10.21l-2-1.7L392,165.7l.85-1.84a18.13,18.13,0,0,1,7.08-6.38,37.42,37.42,0,0,1,9.78-3L420,153.37h.57l9.49.28,6.1.29,4.53-.14,10.07-.57,5.82-.44-.58-9.63H192.88L192,155.07q-.5,9.09-.22,23.08l2.49,2.15,22.11,2h.29c9.92.42,17.71,2.83,23.24,7.37l.85.42.43,1.14v.28l2,2.69,5.67,5.53.14.14c6,4.68,8.51,8.79,8.37,12.48l-.29.85-.71.56-2.83.85h-1.13l-.57,1.71v.14l-.29.56-.56.71-.85.14h-.43l-8.64,1.42-10.78-1.7h-.14L229,217l-.29-.28a25.27,25.27,0,0,1-5.24-9.07l-.28-.14-2.84-.43h-2.55l-.85-.28-7.66-3.69-3.68-2.27v.43l-.85.57-1,.14-3.12-.71-3.83-.14-3.9,1.18c.68,9.18,1.69,19,3.19,29.58a366,366,0,0,0,11.91,53.15,270.22,270.22,0,0,0,9.35,26.33c2.89,1.18,7,2.85,8.08,6.13,0,1.05-2.5,4-3.67,4q4.29,9.31,9.34,18.57a222.41,222.41,0,0,0,37.42,50.74c15.31,15.74,33.88,29.06,55.57,40.4,22-11.34,40.54-24.94,55.7-40.54a236,236,0,0,0,37.71-50.6,298.59,298.59,0,0,0,13.81-29.17l-4.17-3.29,1-.71-2-2.55-1.14-2.13,2.55-2.55c-.14-1,.43-2.12,1.85-3.54l4.11-2.41,4.42-.91q1.26-3.85,2.38-7.74Zm-217-78.67Z"/><path class="cls-1" d="M360.85,199.3v-7.38H332.22L259.5,298.8v31h67.05v24.1h34.3v-24.1h16.44v-31H360.85V199.3Zm-41.11,64.49h0l6.81-10.91V298.8H298.34l5.1-8.65,7.94-12.75,8.36-13.61Z"/><path d="M404.79,142.74l3.26-49.47H363.83l3.26,49.47,5.24,1.7,13.61,1.42a55.17,55.17,0,0,0,18.85-3.12Z"/><path d="M335.05,5.24l.15-2.69c-.15-.71-1.28-1.42-3.41-1.7L322.58,0l-9.07.85c-2.13.28-3.26,1-3.4,1.7l.14,2.69.42.57v.85l-.14,1.14-.42,1.41,1.27,3.26-1.13,2-.14,2,.42,2.55.57,1.42.71.57h21.83l.56-.57.57-1.42.43-2.55-.15-2-1.13-2,1.28-3.26-.43-1.41-.14-1.14V5.81l.42-.57Z"/><path d="M334.49,30.62l-.43-5.11.43-2.41H311l.28,2.41L311,30.62l-1.14,6.52-.71,6.23.43,4.54.28,5.39a8,8,0,0,1-.71,3.68c-.7.85-2,1.56-4.11,2.41l-5.81,3.4a7.34,7.34,0,0,0-3.83,4l-1.13,5-.14,3,.14,8.22.43,18.29.42,22,.28,19.42,3.12,1.84,9.07,3.54,14.18,1.7h1.84l14.18-1.7,8.93-3.54,3.26-1.84.28-19.42.57-22,.28-18.29.14-8.22-.14-3-1.13-5c-.43-1.42-1.85-2.83-3.83-4l-5.81-3.4c-2.13-.85-3.4-1.56-4.11-2.41a10.34,10.34,0,0,1-.71-3.68l.42-5.39.29-4.54-.71-6.23-1-6.52Z"/><path d="M278.21,142.74l3.26-49.47H237.39l3.12,49.47,5.24,1.7,13.61,1.42a55.17,55.17,0,0,0,18.85-3.12Z"/><path d="M479.34,331.13c.28,1.32.61,2.63,1,4a68.84,68.84,0,0,0,5.82,13.18l6.94,10.06,5.39,5.53.28.14,1.42,2.7a1.72,1.72,0,0,1-.85,2.41h-.57l-5.1,1.7-.29.14-4.11,1.56-6.09,1.42-11.63,2-12,2.27a24.8,24.8,0,0,0-8.93,4,13.23,13.23,0,0,0-4.26,6.66l-1.41,7.09-.15,3.4,5.11-.43.14-3a18.76,18.76,0,0,1,1.28-6.1,7.07,7.07,0,0,1,4.67-4.53l5.25-.85,2.12.28.43.28-3.4.43a11.76,11.76,0,0,0-6.24,3.83c-1.84,1.7-2.41,5-2.13,9.49l5.39-.42v-2a6.85,6.85,0,0,1,1.7-4.25c1.28-1.42,3.54-2.55,7.37-2.83l-3.83,2.12-2.55,2.13c-.7,1-.85,2.83-.28,5.38l5.95-.42.85-.14-.56-.85-.14-1.56c.28-.57,1.27-1,3-1.42l2-.14,2.83.14,1.56.43,2.84-1,3.54-3,4.25-3.83a17.91,17.91,0,0,1,7.8-2.69l11.05-1.28,10.78-2,6.09-1.85.25-.8a110.06,110.06,0,0,0,21,6.74c7.86,3.28,14.29,5,19.47,4.84a59.49,59.49,0,0,0,19-3.69,122.12,122.12,0,0,0,18.42-8.79A129.39,129.39,0,0,0,615,367.41l9.5-8.51q45.93-48.69,35.86-132.53C653.7,170.8,656.82,126,669.29,92.14c-14.88,26.08-20.27,67.61-16.44,124.73,3.54,57.27-9.5,101.35-39.12,132.68-6.1,6.52-12.19,11.48-18.43,14.45-.09-1-.19-2-.32-3a35.07,35.07,0,0,1,1.17-7.08l4.39-14.6,5.67-14.46L610,315a151.23,151.23,0,0,0,6.24-23.1,172.22,172.22,0,0,0,3.4-32.61,133.44,133.44,0,0,0-4.39-37A186.85,186.85,0,0,0,604,191.78L593,171.66a66.13,66.13,0,0,1-7.09-14.18,35.19,35.19,0,0,0-6.37-11.76l-8.51-9.08-6.38-4.53c-1.41-1-2.83-3.12-4.25-6.52a116.55,116.55,0,0,1-3.83-11.2,60.32,60.32,0,0,1-2-10.21l-.85-8.08-.71-6.94v-3l2.13-1.27,4.25-3.55a10.15,10.15,0,0,0,3.12-6.09c.42-2.27-.29-5.25-1.85-8.51a21.34,21.34,0,0,0-7.37-6.09,19,19,0,0,0-9.07-1.85,21,21,0,0,0-11.2,3l-7.37,4.68-1.56,1.27.57-2.12,3.4-4.4c1.7-1.84,4.4-3.26,8.08-4.67,1.56-.15,2-.57,1.42-1.42a15.47,15.47,0,0,0-3.4-2l-5.67-1.7c-2.13-.28-4.68-1.41-7.8-3.26l-10.2-5.81L500.9,37l-9.78-4-13.61-4.82-12.33-4-5.11-1.56,1.56,2.69a8.49,8.49,0,0,1,.71,6,5.16,5.16,0,0,1-2.55,3.54,6.18,6.18,0,0,1-4.25,1.42L453.69,36a5.09,5.09,0,0,1-3-1.84l-1.84-2.55-2.13,2.13a10.76,10.76,0,0,0-1.42,5.1,8.68,8.68,0,0,0,2.7,6.38l7.51,7.37,6.8,8.64c1.84,2.7,2.13,4.82,1.28,6.24-.85.71-1.42,1.14-2.13,1.14-1.27,0-2.55-.86-3.83-2.56l-4.53-5a4.93,4.93,0,0,0-3.4-1.7,5.32,5.32,0,0,0-4.26,3c-1.13,1.84-.85,3.68.57,5.67a27.14,27.14,0,0,0,8.51,5,13,13,0,0,1,6.23,3.54l4.68,7.94a101.86,101.86,0,0,1,7.09,14.18c2.39,5.06,3.52,9.56,3.26,13.79a27.89,27.89,0,0,1-9.64-3.87l-5-5-8.65-7.37a41.51,41.51,0,0,0-10.2-5.39l-7.66-1.13c-3.26.14-5.39.56-6.8,1.55l-2.13,1.42h1.84l5,.29,3.68.56c.57.43-.14.85-2.55,1.42l-.14,0-.14,0-.13,0-.14,0-.14,0-.13,0-.13,0-.13,0h0l-.13.05h0l-.13,0h0a14.82,14.82,0,0,0-5,2.78l-1.84,3.26v1.42l1-1,5-2,6.38-2,3.26-.71L440,97.8l-7.52,4-.12.07-.13.07h0a13.17,13.17,0,0,0-5.28,4.54L425.35,111l-.29,1.7,4.68-3.55a66,66,0,0,1,12.33-6.23l4.25-.85a10.25,10.25,0,0,1,5.32,1.93l.07.05a6.84,6.84,0,0,1,2.13,4.25,4.08,4.08,0,0,1-1.85,3.83l-.08.09-2.47.9h-.81l-.09,0h-.17l-.08,0h0l-.09,0h0a4.91,4.91,0,0,1-3.29-2l-2-2.41-.42.42v1.7l3.54,5c1.42,1.56,2.69,2.7,4.25,3.12l3.83.85,3.54-.56,1.42-.57.29,1.56.2.16a2.84,2.84,0,0,0,2.06,1.68l6,5.67,8.35,6.54L477.16,154a7.62,7.62,0,0,1-.93.18l-6.09.85-7.94.57-11.48.85-10.07.71h-4.39l-6.24-.29-9.64-.28h-.28l-9.5.85a35,35,0,0,0-8.93,2.69,13.83,13.83,0,0,0-5.95,5.39l.71.42,2.13-1,4.11-1.41h.42c.71,0,.71.56-.71,1.55l-4.82,5.39c-1.84,2.41-2.55,5.81-2.55,9.92l3.4-5.95,4.4-5.53a7.85,7.85,0,0,1,4.53-2.55h.43l2.41.85c.28.28.28.57,0,.71l-.57.42-1.27,2.84-1.7,6a9.22,9.22,0,0,0,.42,5.67l1.7-5,2.41-5.1a5.92,5.92,0,0,1,3.26-2.55l2.55.42,2.84.57,4.68.71a1.9,1.9,0,0,0,2.26-1.14l1.56-.85,3.12.29,6.38,2.83,7.09,3.83,10.34,6.66a58.87,58.87,0,0,1,10.49,9.21l9.08,11.2c2,2.7,4,3.83,5.95,3.83l1.42-.14.81-.14.6,4.53c.43,3.69,0,8.79-.85,15.45l-3.54,23.39a255.44,255.44,0,0,0-2.84,29.2A198.24,198.24,0,0,0,477.51,313l.14,2-1.42-.34L471,313.54,466.88,311l-6-4.68-4.25-2.55-4-1.27-8.08-5a9.61,9.61,0,0,0-5.67-1.85,11.45,11.45,0,0,0-6.23,1.85c-1.56,1-2.27,2-2,2.55a12.26,12.26,0,0,1,2.92-1.77,8.77,8.77,0,0,1,3.1-.66l.36,0,3.54.56,1.42.43,1.14,1,0,0h0c.65.4.67.67.29.69h0l-2.84-.71-3.26-.57-.11,0h-.11a13.22,13.22,0,0,0-5.06,1.49c-.28.15-.55.31-.81.47l-2.55,1.84,1,1.42a4.21,4.21,0,0,0,2.55,1.13l.57-.14,3.12-1.56,3.68-.28,2.84.14,1.27.14,2.55,2L446,306l-1.21.27-3.32-.55-2-.29,0,0-.09,0-.89.25-3.79.89-2.12,1L439,313l.29-.15,1.41-1.41.71-.43h.15l.08,0h0c1.61.36,4.52,3,8.7,7.76a29.79,29.79,0,0,0,7.3,5.23l.22.15,7.37,1.85a62.19,62.19,0,0,1,8.5,3l2.55,1.14V330l3.12,1.18ZM455.82,21.55a11.06,11.06,0,0,0-4.68-1.42h-.78l-.09,0h-.08l-.07,0h0c-1.36.32-2.22,1.59-2.79,3.9-.38,2.35-.31,3.73,0,4.42h0l0,0h0l0,0h0v0l0,0,0,0,0,0,0,0,0,0a4.25,4.25,0,0,0,2.27.71,2,2,0,0,1,2,1.56,6,6,0,0,0,2,2.13l2.56.57h1a2.88,2.88,0,0,0,2.24-1.34,11.46,11.46,0,0,0,.6-4.51h0v-.09h0v-.65c-.28-2.12-1-3.4-2-4l-2.27-1.55Zm51.26,37.67c0,8.69-13.31,8.69-13.31,0s13.31-8.68,13.31,0Z"/><path d="M94.65,25.37c2.84-1.42,5-2.27,6.38-2.27h.71c-5.16-4.92-9.42-4.94-15.59-3.4a7.18,7.18,0,0,0-4,2.7c-2.84,4.19,2.08,5.74,5.31,5.72a12.19,12.19,0,0,0,7.16-2.75Z"/><path d="M90.4,32c-.28.43,0,.86.71,1.14,1,.57,1.7,1.7,2.55,4,.42,1.41.85,2,1.27,2h.15l3.82-.85,9.22-1.56h8.64l3.83.43-2.83-3.83c-5-4.75-8.43-6-14.89-7.37C97.43,27.22,95,28.77,90.4,32Z"/><path d="M97.77,42.24l.57.71c6.41,12.24.64,20.24-8.22,27.78-1,3.69-.71,7.94,1,12.76,1,2.27,4.68,8.65,11.34,19l2.27-2.12,4.39,4.67c.71-3.82,2.69-6,6.09-6l3.55.85,4-.85,7.37-4.82c3.26-2.41,6.09-3.68,8.36-3.68l.85.14,6.38,1,4,1,3-.71,3.4-2.55a8.17,8.17,0,0,0-7.23-4.25l-1,.14-11.06.28c-1-1.55-1-3,0-4.11a12.16,12.16,0,0,1,6.38-1.56l15.73,2.27a14.86,14.86,0,0,0,7.8-2l.28-1,.29-1.85a70.05,70.05,0,0,0-5.53-12.47c-1.42-2.27-4-4.25-7.51-6.24a55.55,55.55,0,0,0-14.89-4.39l-2.12-2-3.83-3.4c-5.53-5.95-12.76-8.79-22-8.79l-2.84.15L97.77,42h.28l-.28.28ZM114.69,53a6.63,6.63,0,1,1-6.62,6.62A6.62,6.62,0,0,1,114.69,53Z"/><path d="M22.64,53.58H22.5l-1.27,3-.57,1.84a29,29,0,0,0,0,21.26l4.11,2.55,5.67.85,5-.42,3.83-1.42,1.27-.57.43-.14.71-.57.85-1.27a2,2,0,0,0,0-2.13l-.28-1.41a.8.8,0,0,0-1-.15l-1-.28-.57-.14L36,73.14l-3-1.7a23.41,23.41,0,0,1-7.65-7.94l-2.41-7.09-.29-2.83Z"/><path d="M24.35,51.17v1.42l.85,3.54,2.26,4.54,2.13,3.4c2.27,2.69,4.25,4.39,6.09,5.1l4.12,1,1.27-.28.28-.42-4.11-1.28-2.69-3.12-.14-2.83L35,60.38c4.25-2,5.67-6,4.53-12-1-6.1-1.13-10.35-.71-12.48l1.42-2.41L42.35,32l-3.83,1.71L37,34.87A31,31,0,0,0,24.63,49.75l-.28,1.42Z"/><path d="M70.13,19.28l6.66-2.84-5.38-.56-7.23,1.27c-2,2.55-2.84,4.11-2.7,4.68l1.42.28c2.13,0,4.54-1,7.23-2.83Z"/><path d="M63.47,29.2l-.29-1.56-11,.57c-4.4.71-7.37,2.55-9.07,5.67-2.56,6.94-2.13,12.9,1.7,18.14l2.41.14,2.69-.42c2.83-1.14,5.1-4.82,6.52-11.2s3.69-10.06,7.09-11.34Z"/><path d="M72,22.82l3.83.43,1.84-.15a2.65,2.65,0,0,0,2.7-1.84L72,22.82Z"/><path d="M66.87,29.2c-6.38,6.38-9.07,13.18-7.66,20.55A58,58,0,0,1,72.11,55a46.11,46.11,0,0,1,15.6-14A2.74,2.74,0,0,0,88,38.41c-3.73-8-12.59-10.92-21.12-9.21Z"/><path d="M87.42,86.32l-1-4.11-.57-1.27-2-5.81.28,2.69-.42-1.42L84,80.51c.14,2.55-.42,6.1-1.56,10.77a42.34,42.34,0,0,1-7.51,15c-1.7,1.13-2.27,2.69-1.84,5a24.58,24.58,0,0,0,1.7,8.65c1.27,2.69,3.54,4.53,7.51,5.1,2.13-.43,3.68-2.27,4.68-5.1a28.38,28.38,0,0,0,2.12-10.63,79.17,79.17,0,0,0-.14-13l.43-1.14-1.14-4.39-.85-4.4Z"/><path d="M79.06,82.92A7.19,7.19,0,0,0,77.5,79.8c-3.4-2.41-6.52-3.54-9.78-3.54l-5,1,4.11,2.84a27,27,0,0,1,4.82,5.52,17.66,17.66,0,0,1,2.55,8.51l.14,2.69.14-.28c3.69-5.39,5.11-10.06,4.54-13.61Z"/><path d="M67.72,87.32a17.75,17.75,0,0,0-4.25-4.68c-1.42-.71-2.55-1.28-3.4-1.14l-1.14.15v.42l1.14,3.83a24.69,24.69,0,0,1,.28,9.21c-.57,3.83-2.55,7.23-6,10.63L54,106.88,54.4,108l2,.43,6.52-1L67,105.6l2.27-1.42.42-.28.57-1c1.28-1.7,1.56-4,1.14-7.09a19.57,19.57,0,0,0-3.69-8.5Z"/><path d="M47.88,85.33l-.71-1.84-5-2-4.4,3-7.23,1.7-6.23-1.13a5.08,5.08,0,0,1-3.12-2l.28,1.42,1,3.83,1.42,3,4.25,6a10.51,10.51,0,0,0,7.37,3.26l2.27-.14,6.1-4c2-2,3.54-5.53,4-10.07v-1Z"/><path d="M51.28,84.91l.28.7a28.14,28.14,0,0,1-4.39,10.92,16.48,16.48,0,0,1-8.37,6.8l-1.56.29H37L38.8,105l4.54,1.85L45,107l2.41-.14,2.55-.71,1.84-1,1-1h.28l2.55-4.39L57,93.41A17.23,17.23,0,0,0,57,88v-.28l-.57-2.55a2,2,0,0,0-2-1.42,5,5,0,0,0-3.12,1.14Z"/><path d="M342.89,465.54l-.6.6v5.4l.6.7h7.4l.3.6V506c0,.3.2.4.7.3h6.3l.7-.3v-33.2l.6-.6H366l.6-.7v-5.4l-.6-.6Z"/><path d="M335.79,472.24c.3.1.5-.2.3-.7v-5.4l-.3-.6h-23.1l-.7.6V506c-.2.3.2.4.7.3h23.1l.3-.3v-5.7l-.3-.7h-15.7l-.8-.7v-9.4l.8-.6h12.7c.5,0,.8-.2.6-.4v-5.7l-.6-.6h-12.7l-.8-.7v-8.7l.8-.6Z"/><path d="M374.09,468.14a10.77,10.77,0,0,0-3.2,8.2v19.4a11.47,11.47,0,0,0,3.2,8.3,12.29,12.29,0,0,0,8.8,3.1h3c3.8,0,6.8-1,9-3.1a11.23,11.23,0,0,0,3.4-8.3v-19.4a10.55,10.55,0,0,0-3.4-8.2c-2.2-2.1-5.2-3.1-9-3.1h-3a12.29,12.29,0,0,0-8.8,3.1Zm4.1,8.2h0a4.57,4.57,0,0,1,1.3-3.1,4.48,4.48,0,0,1,3.4-1.5h3a4.13,4.13,0,0,1,3.3,1.5,4.26,4.26,0,0,1,1.4,3.1v19.4a4.44,4.44,0,0,1-1.4,3.4,4.69,4.69,0,0,1-3.3,1.3h-3a5.13,5.13,0,0,1-3.4-1.3,4.76,4.76,0,0,1-1.3-3.4v-19.4Z"/><path d="M435.49,465.54h-14.7l-.7.6V506c0,.3.2.4.7.3h14.7a12.44,12.44,0,0,0,8.9-3.2c2.2-2.2,3.2-5.2,3.2-8.9v-16.7a11.67,11.67,0,0,0-3.4-8.7q-3.15-3.3-8.7-3.3Zm-7,6.7h7a4.33,4.33,0,0,1,3.4,1.5,4.57,4.57,0,0,1,1.3,3.1v18.1a5.13,5.13,0,0,1-1.3,3.4,4.94,4.94,0,0,1-3.4,1.3h-7l-.7-.7v-26.1l.7-.6Z"/><path d="M456.79,465.54l-.7.6V506c-.2.3.2.4.7.3h23l.3-.3v-5.7l-.3-.7h-15.7l-.7-.7v-9.4l.7-.6h12.7l.6-.4v-5.7l-.6-.6h-12.7l-.7-.7v-8.7l.7-.6h15.7c.3.1.5-.2.3-.7v-5.4l-.3-.6Z"/><path d="M501.89,465.54l-.7.6V506c0,.3.2.4.7.3h6.3c.5.1.7,0,.7-.3v-8.4l-.2-6.1-.1-6.1-.4-3.9h.4l.6,1.9.7,1.5,11.7,21.4h6c.3.1.5,0,.7-.3v-39.9l-.7-.6h-6l-.7.6v8.1l.2,6.1v6.4l.2,3.5-.4.3-.5-1.8-.8-1.5-11.7-21.4-.7-.3Z"/><path d="M552.49,465h-3.4c-3.7,0-6.7,1-8.8,3.1s-3.2,4.7-3.2,8.2v19.4a11.08,11.08,0,0,0,3.2,8.3c2.1,2.1,5.1,3.1,8.8,3.1h3.4a12.55,12.55,0,0,0,8.9-3.1,11.47,11.47,0,0,0,3.2-8.3v-19.4a10.55,10.55,0,0,0-3.4-8.2,12,12,0,0,0-8.7-3.1Zm-8.1,11.3h0a3.84,3.84,0,0,1,1.6-3.1,4,4,0,0,1,3.1-1.5h3.4a4.33,4.33,0,0,1,3.4,1.5,5,5,0,0,1,1.2,3.1v19.4a5.18,5.18,0,0,1-1.2,3.4,4.94,4.94,0,0,1-3.4,1.3h-3.4a4.57,4.57,0,0,1-3.1-1.3,4,4,0,0,1-1.6-3.4v-19.4Z"/><path d="M585.39,465h-1a12.29,12.29,0,0,0-8.8,3.1c-2.2,2-3.2,4.7-3.2,8.2.2,3.9,1.3,6.5,3.5,8.4a31.91,31.91,0,0,0,7.2,4.7l4.8,2.5a4.25,4.25,0,0,1,2.2,3.8,4.76,4.76,0,0,1-1.3,3.4,4.94,4.94,0,0,1-3.4,1.3h-2.6c-1.9.2-3.2-1.1-4.4-4l-.6-.3-6.1,3-.3.3,1.3,2.7c1.5,3.1,4.9,4.9,10.1,5h2.6c3.7,0,6.7-1,8.9-3.1a11.08,11.08,0,0,0,3.2-8.3c-.2-3.8-1.2-6.8-3.2-8.8l-6.9-4.6-5.3-2.3a4.35,4.35,0,0,1-2.3-3.7,5.24,5.24,0,0,1,4.6-4.6h1c2-.2,3.6,1.1,4.7,4a2.12,2.12,0,0,0,.7.3l6-3,.3-.3-1.3-2.4-3.8-3.8-6.6-1.5Z"/><path d="M80.19,472.84l.6-.6h15.5l.6-.7v-5.4l-.6-.6H73.19l-.7.6V506c0,.3.2.4.7.3h23.1a.42.42,0,0,0,.6-.3v-5.7l-.6-.7H80.79l-.6-.7v-9.4l.6-.6h12.8l.7-.4v-5.7l-.7-.6H80.79l-.6-.7v-8.7Z"/><path d="M105.49,465.54l-.7.6V506c.2.3.3.4.7.3h23c.5.1.6,0,.6-.3v-5.7l-.6-.7h-15.4l-.6-.7v-32.8l-.7-.6Z"/><path d="M163.09,465h-3.3c-3.7,0-6.8,1-8.9,3.1a10.77,10.77,0,0,0-3.2,8.2v19.4a11.47,11.47,0,0,0,3.2,8.3c2.1,2.1,5.2,3.1,8.9,3.1h3.3a12.66,12.66,0,0,0,6.4-1.4,9.88,9.88,0,0,0,4-3.6l1-2.7-.3-.3-5.1-2.7-1-.3-.3.3c-1.5,2.9-3,4.2-4.7,4h-3.3a4.63,4.63,0,0,1-3.2-1.3,4.19,4.19,0,0,1-1.5-3.4v-19.4l1.5-3.1a4.07,4.07,0,0,1,3.2-1.5h3.3c1.7-.2,3.2,1.1,4.7,4l.3.3,1-.3,5.1-2.7.3-.3-1-2.4a9.71,9.71,0,0,0-4-3.8l-6.4-1.5Z"/><path d="M181.79,465.54l-.6.6v29.5c0,3.5,1,6.2,3.1,8.1,2.2,2.3,5.2,3.3,8.9,3.3h3.3c3.7,0,6.6-1,8.7-3.3a10.19,10.19,0,0,0,3.4-8.1v-29.5l-.7-.6h-6.1l-.6.6v29.5a4.37,4.37,0,0,1-1.4,3.3,4.22,4.22,0,0,1-3.3,1.4h-3.3a4.31,4.31,0,0,1-3.2-1.4l-1.5-3.3v-29.5l-.7-.6Z"/><path d="M230.89,465.84c-.1-.3-.3-.5-.6-.3h-4.7c-.5-.2-.7,0-.7.3l-11.6,38.8-.4,1.4c-.1.3.2.4.7.3h6.3c.4.1.5,0,.7-.3l2-6.7.7-.4h9.3c.3-.1.5,0,.7.4l2,6.7c0,.3.1.4.6.3h6.4c.5.1.9,0,.7-.3l-.3-1.4-11.8-38.8Zm-3.6,16.7h0l.1-1.8.5-1.9.5,1.9.5,1.8,1.7,7.7.3,1-.6.7h-4.7l-.7-.7.4-1.3,2-7.4Z"/><path d="M248.79,465.54l-.6.6V506c-.2.3.1.4.6.3h6c.5.1.9,0,.7-.3v-16.5l.7-.6h5.6l.8.6,5.6,16.5.7.3h6.7c.5.1.7,0,.7-.3l-.4-1-5.7-16.5-.3-1,.3-.6,3.6-3.7a11.7,11.7,0,0,0,1.8-5v-.7c0-3.7-1-6.5-3.2-8.7a12,12,0,0,0-8.8-3.3Zm14.8,16.7h-7.4l-.7-.7v-8.7l.7-.6h7.4a5.24,5.24,0,0,1,4.6,4.6v.7a4.13,4.13,0,0,1-1.5,3.3,4.26,4.26,0,0,1-3.1,1.4Z"/><path d="M281.39,466.14v5.4l.4.7h7.3l.7.6V506c-.2.3.1.4.6.3h6c.4.1.5,0,.8-.3v-33.2l.6-.6h7l.7-.7v-5.4l-.7-.6h-23l-.4.6Z"/><path d="M164.53,116.09l-2.41-.85a22,22,0,0,1-4.11-2l-4.39-4.12a17.74,17.74,0,0,0-5.1-3.11l-10.21-1.28a19.53,19.53,0,0,0-4.68-5.39l-8.22,5.39L119,106l-3.83-.57-.28,1.27L113.5,109,111,110.42l-1.84.28a3.87,3.87,0,0,1-3.12-1.13l-.71-.71-1-1-1.84.71A5.23,5.23,0,0,1,98.34,106l-1.14-1.85-2.26-4.25a96.66,96.66,0,0,1-1.42,15.59,20.47,20.47,0,0,1-6.81,12.62,5.63,5.63,0,0,1-4.53,2,11.34,11.34,0,0,1-5.25-1.7l-4-3.12-1.56-2.12-3-7.66-.57-3.68-3.54,1.42-7.51,1.41a10.17,10.17,0,0,1-5.67-1.56l-.71-.71-1.28.43-.57.28L38.09,110.7a14.12,14.12,0,0,0,1.28,7.37l1.28,2.7,1.56,1.7-.57,2.27L41.35,130a11.54,11.54,0,0,0,2.84,6l6,7.8-.28,10.21c-.43,1.13.28,3.26,1.84,6.09,1.42,2.41,2,3.83,1.84,4.4l-3.68,3.26A12.91,12.91,0,0,0,45,174.91L44.76,178l-.43,3.26c-6.66,7.8-10.2,12.48-10.77,14.18L34,201l.57,5.67-3.83,6a24.72,24.72,0,0,0-5,9.21l-.42,7.23.42,5.25a44.88,44.88,0,0,1-4.82,8.08c-2.69,3.4-4.25,6.09-4.67,7.93v7.94l1.27,1.7L8.89,274.85c-1.41,5-.7,8.64,1.56,11-5.1,7.09-7.93,11.63-8.64,13.89-.14,1.42.56,4.82,2.41,9.93l-1.7,3.4L1,316.66q-1.92,6.6,0,10.21l3.82,6.66v7.65A13.47,13.47,0,0,0,7.9,349l5.81,5.81,3.83,7.66a9.25,9.25,0,0,0,5.95,5l.86.14,3.26-.43,2.69-.28,1.84.28L33.56,369,35,371.66a29.62,29.62,0,0,0,9.78,6.24l3.54.42,5.24-.71,1.56-.28c1.28.28,1.71.71,1.14,1.27a14.36,14.36,0,0,0,5.67,3.55l2.69.14,4.54-.85a21.65,21.65,0,0,0,11.48,9.78l1.56.14c2.69,0,5.81-1.13,9.92-4,2.55,2.84,4.54,4.26,6.24,4.82l2.55-.42,2.27-8.08c.28-1.42-2.56-5.53-8.51-12.48l5.39,1,2.27.14,5.81-1.14,2-.28,3.83-2.55a7.7,7.7,0,0,0,1.09-1.63,14,14,0,0,0,3.73,1.77l5,.57,2.69-.29L129,386.26c7.94,3,11.91,8.65,11.77,16.87-.54,1.06,2.4,1.67,4,2.41l3,2c-.56,2.84,1.14,6.1,5.39,9.64a18.5,18.5,0,0,0,7.8,2,7.32,7.32,0,0,0,5-1.41l-2.55-6.38c-1.18-2.36.24-2.8,1-3.1.29-.11,3,4.62,5,7,.83,1,3.18-.45,2.66-1.82-1-2.7-3.56-7.63-5.78-9.45a39.92,39.92,0,0,0-6.75-3.85c-1.59-4.88-.78-4.88-.85-9.5l-1.7-1.41-1.28,1.41-2.12-2.55c-3.83-3-6.38-7.37-8.08-13.61a12,12,0,0,0,8.93-3.68,10,10,0,0,0,2.55-5.95l-.57-4.68-1-2.13-2.27-1,5.1-7.23v-1l-2.83-6.24-1.57-8.79h0l12.76-4.67,5.81-1.85-2.27-1.7,5.1-1.13,6,.42,4,.29,3.4-.29h.85l6.8-.85a22,22,0,0,0,7.23,5.11c6.66-1.14,11.62-3.27,15.17-6.38,0-1-.85-2.13-2.84-3.26l-3.12-2.41c-1-1-.81-1.3.75-2.29,3.19,1.06,6,4.65,7.78,5.6.59.32,1.85-2,2-2.54-1.14-2.26-5.09-4-10.62-5.74-5.67-1.42-9.73-2.55-11.43-4.25l-5.95-.85c-4.25,0-9.36,1.14-15,3.26-9.92,4.4-17,6.81-20.55,7.09h-.71c-3.12,0-5.81-1.42-8.22-4.54l-5.24,1.71-2.42.72-.42,0a4.83,4.83,0,0,1-3.12-1c.19-.87.33-1.71.43-2.54a7.17,7.17,0,0,0,.42-2.42l-.14-5.67a8.83,8.83,0,0,1,1-4.68l4.26-7.37,2.55-5.95.28-3.83a9.63,9.63,0,0,1,0-4.11l2.84-5.67,2.83-5.67c1-4.11.71-6.38-.71-7.37,2.13-1.84,4.11-5.24,5.53-10.21a4.24,4.24,0,0,0-.71-3.11l-.56-2.56c3.82-3.68,6-7.08,6.66-9.92l.28-4.11a8.73,8.73,0,0,1,0-3.83l2.55-2.12,2.84-2.13v-.71a29,29,0,0,0,6.94-7.65l3.4-7.23.81-2.24,1.32-.59a72.72,72.72,0,0,1,14.18-4.82v-.15l5,.86-1.28-2.56h.71c2.13-.14,5.53,1.42,10.21,4.54,2.83,1.42,5.24,2.41,6.94,3.12l1.28.28h1l5.1,1,1.28,1.28a17,17,0,0,0,4.68,8.22l10.2,1.7,7.51-1.13c.57-1-.14-2.41-1.56-4.4l-2-4.11c-.28-1.27.42-2.12,2.41-2.55,3.4,3.55,5.67,6.38,6.66,8.65-.28-2.84-2.69-6.38-7.37-10.63-5.1-4-8.08-7.09-8.93-9.78-5-4.11-12.05-6.38-21.54-6.52-11.91-.43-19.85-1.28-23.39-2.7a10.42,10.42,0,0,1-4-2.59L189.2,179l.56-5.39c.15-1.28-.42-3.54-1.7-6.66l-1.56-5.67.71-2.84.85-2.69c1.28-4,1.42-6.8.43-8.51l-4.82-7.65-1.56-5.1a11.43,11.43,0,0,0-3.65-4.33l2.94-1.91,7.09-2.27.85-.56.71-.57,3.54-2.41,2-.71.86.14a15.65,15.65,0,0,0,8.93,3.26c6.66-3.4,11-7.09,13.6-11.76-.14-.85-1.56-1.7-4.11-2.27l-4.25-1.42c-1.28-1.13-1.08-.58.2-1.71l10,1.88.52-2.15c-1.56-1.7-5.1-2.55-10.2-2.55h-2.41l-4,.14c-4,0-6.95-.43-9.07-1.42-6.38.28-13.19,3.54-20.56,9.5l-4.82,4.25-2,2-.31.25-.82-1.1-1-1.27-1.7-1.42Z"/><path d="M97.06,53.3a24.84,24.84,0,0,0-2-8.08A4.44,4.44,0,0,0,92.53,43H91.39l-2,.42-4,2.41-7,4.82C76.37,52.59,75.23,54,75,55a61.62,61.62,0,0,1,8.93,14.31,41.17,41.17,0,0,0,5.53-3.26c4.14-3.93,7.65-6.48,7.65-12.75Z"/><path d="M58.93,58.4l-.71.28a6.38,6.38,0,0,0-1,4.11v.43l1.84,2,2.27,1a2.16,2.16,0,0,0,1.56-.86l3.4-2.83,3.4-1h.85c1.14-.14,1.42-.43,1-1.14l-3.12-2.55-3.26-1.42h-1.7l-2.41.43L59.21,58l-.28.43Z"/><path d="M57,55.42l-1.42-.28L46.46,56a17.54,17.54,0,0,0-6.66,7.23C50.28,61.52,56,59,57,55.42Z"/><path d="M51.7,68.61H50.28l-2.69,2a4,4,0,0,0-.14,3.12l1.7,2.55,3.12.85L53.54,77l2.84-2a3,3,0,0,0,.14-3.11,5,5,0,0,0-4.82-3.26Z"/><path d="M68.85,64.21a3.51,3.51,0,0,0-3.26,2.13c-2,3.12-2.26,5.67-1,7.51l1.84-.57,4.68-.42,4.11.71a8,8,0,0,1,3.69,2.26c-1.28-5.52-3.26-8.78-5.81-10.2a9.26,9.26,0,0,0-4.26-1.42Z"/></g></g></g></svg>